/* XPM */
static char * enemy_1_xpm[] = {
"32 32 257 2",
"  	c #70C725",
". 	c #328530",
"+ 	c #44A318",
"@ 	c #58AC14",
"# 	c #94FF30",
"$ 	c #3A9311",
"% 	c #3D9815",
"& 	c #7EA58B",
"* 	c #63AC98",
"= 	c #817A6B",
"- 	c #A7A5C4",
"; 	c #97A5BC",
"> 	c #5FAA9B",
", 	c #9DA0C1",
"' 	c #9892AA",
") 	c #6C9E86",
"! 	c #729BA1",
"~ 	c #C18AA1",
"{ 	c #9F4412",
"] 	c #878163",
"^ 	c #56B289",
"/ 	c #629891",
"( 	c #48A748",
"_ 	c #A090AB",
": 	c #BD9DB9",
"< 	c #7E616F",
"[ 	c #8E5724",
"} 	c #5E9088",
"| 	c #6F7E8B",
"1 	c #6EA79D",
"2 	c #9FBCB3",
"3 	c #5B5741",
"4 	c #5E9B81",
"5 	c #5F9997",
"6 	c #7F84A2",
"7 	c #8E8FAE",
"8 	c #CB9A44",
"9 	c #D79D24",
"0 	c #615964",
"a 	c #8B8EA4",
"b 	c #B7B6B6",
"c 	c #937756",
"d 	c #7A5400",
"e 	c #5CAA97",
"f 	c #53A192",
"g 	c #8C7050",
"h 	c #C49004",
"i 	c #DDA103",
"j 	c #D59C00",
"k 	c #A7A29F",
"l 	c #8B8B9C",
"m 	c #B7B7B6",
"n 	c #958E7E",
"o 	c #6D676D",
"p 	c #67AD94",
"q 	c #5B6245",
"r 	c #A17206",
"s 	c #E6A905",
"t 	c #B28308",
"u 	c #7D6C62",
"v 	c #6F6D7C",
"w 	c #928E93",
"x 	c #5D5B65",
"y 	c #5CB19C",
"z 	c #55B09B",
"A 	c #907056",
"B 	c #BA8812",
"C 	c #C79206",
"D 	c #AA8121",
"E 	c #2F2A21",
"F 	c #757389",
"G 	c #486467",
"H 	c #65ACA0",
"I 	c #73858F",
"J 	c #808496",
"K 	c #59B49E",
"L 	c #A38EAE",
"M 	c #8F766B",
"N 	c #966C07",
"O 	c #A07504",
"P 	c #6A510B",
"Q 	c #767891",
"R 	c #878A9F",
"S 	c #2C2E3A",
"T 	c #17151E",
"U 	c #94B4A6",
"V 	c #72B1A3",
"W 	c #5EB5A2",
"X 	c #51AA97",
"Y 	c #8385A3",
"Z 	c #B7B4CF",
"` 	c #B08637",
" .	c #885B06",
"..	c #694B04",
"+.	c #6B4B00",
"@.	c #5C8A71",
"#.	c #396D65",
"$.	c #363645",
"%.	c #4C7875",
"&.	c #707B86",
"*.	c #80848C",
"=.	c #5FB69F",
"-.	c #65B2A5",
";.	c #64B1A2",
">.	c #6DA59C",
",.	c #9193B2",
"'.	c #B5B9D9",
").	c #AF9EA3",
"!.	c #D19605",
"~.	c #986C05",
"{.	c #9C7524",
"].	c #60C3AD",
"^.	c #63CDB4",
"/.	c #4D9D8C",
"(.	c #232B3F",
"_.	c #0A0A14",
":.	c #84918F",
"<.	c #64B1A4",
"[.	c #73878E",
"}.	c #5B5F6E",
"|.	c #79A8A8",
"1.	c #54B19D",
"2.	c #3D7D6E",
"3.	c #50676A",
"4.	c #768491",
"5.	c #9A99B5",
"6.	c #AD8A5E",
"7.	c #E0A403",
"8.	c #C89425",
"9.	c #98AA7B",
"0.	c #5FB19A",
"a.	c #4FB07B",
"b.	c #344E53",
"c.	c #38404B",
"d.	c #555962",
"e.	c #000000",
"f.	c #7A7B80",
"g.	c #60AF9E",
"h.	c #4BAA5D",
"i.	c #5FB28D",
"j.	c #8D96AB",
"k.	c #357751",
"l.	c #277645",
"m.	c #429478",
"n.	c #3A5D62",
"o.	c #5A548F",
"p.	c #6863A5",
"q.	c #576287",
"r.	c #2B3B30",
"s.	c #8B6004",
"t.	c #AF8002",
"u.	c #BC8F2C",
"v.	c #8AA985",
"w.	c #468C7C",
"x.	c #252236",
"y.	c #08060C",
"z.	c #888B8F",
"A.	c #5FB9A4",
"B.	c #719A98",
"C.	c #878A9C",
"D.	c #54B69B",
"E.	c #6AA49E",
"F.	c #9898B9",
"G.	c #476460",
"H.	c #257C44",
"I.	c #2A8549",
"J.	c #257742",
"K.	c #1D6E3E",
"L.	c #20713C",
"M.	c #486C74",
"N.	c #363D59",
"O.	c #667A5A",
"P.	c #57AB98",
"Q.	c #53AA98",
"R.	c #315A5C",
"S.	c #4E5C69",
"T.	c #656472",
"U.	c #201C20",
"V.	c #787C85",
"W.	c #5BA799",
"X.	c #AFB0CF",
"Y.	c #5F6E7A",
"Z.	c #195A34",
"`.	c #145F2F",
" +	c #1F753C",
".+	c #12592B",
"++	c #1E6137",
"@+	c #28854A",
"#+	c #1A6231",
"$+	c #398E4E",
"%+	c #3B746A",
"&+	c #1C222A",
"*+	c #97B0A9",
"=+	c #57B6A1",
"-+	c #B2B2D2",
";+	c #5F9F99",
">+	c #56B19D",
",+	c #3D8E75",
"'+	c #205E3E",
")+	c #105429",
"!+	c #1F733D",
"~+	c #217440",
"{+	c #409178",
"]+	c #469786",
"^+	c #474855",
"/+	c #62AB9E",
"(+	c #56B69F",
"_+	c #9E9DB9",
":+	c #55B592",
"<+	c #459782",
"[+	c #125A2B",
"}+	c #145E2E",
"|+	c #14582D",
"1+	c #59B89B",
"2+	c #53B28A",
"3+	c #61B3A2",
"4+	c #778F98",
"5+	c #5B8780",
"6+	c #93AFA8",
"7+	c #C2C2BE",
"8+	c #76B7A4",
"9+	c #4AA28D",
"0+	c #115628",
"a+	c #0F5A27",
"b+	c #2F795E",
"c+	c #4FAA89",
"d+	c #336257",
"e+	c #111D1A",
"f+	c #908FA6",
"g+	c #A4A5BD",
"h+	c #82A3A7",
"i+	c #4CA18D",
"j+	c #11562A",
"k+	c #105927",
"l+	c #56A190",
"m+	c #469281",
"n+	c #302E39",
"o+	c #648889",
"p+	c #3F8B75",
"q+	c #545F66",
"r+	c #6C7D8C",
"s+	c #5BB3A0",
"t+	c #6F7F8D",
"u+	c #737E82",
"v+	c #64A293",
"w+	c #948D93",
"x+	c #76728B",
"y+	c #63A198",
"z+	c #5AB39D",
"A+	c #71748B",
"B+	c #3E414D",
"C+	c #5AAA9B",
"D+	c #50877E",
"E+	c #7C7C9A",
"F+	c #61737F",
"G+	c #5E6C78",
"H+	c #518C82",
"  . +   + + @ # @ +   .   + . +   . +   + + @   @ +   .   + . + ",
"  + + + $ + # + + + +   + + + +   + . + + + +   + + +   . + + . ",
"+ +   @ + $   + + . %   + + % . + + . + # + . + + + +   + + + . ",
". + +   % + + +   @ . + +   # + . + + # + + + @ +   @ + @ +   + ",
"+ + $   $   & * +   . + $ + . # + . +   +   + . + +   + + + @   ",
"+   @ + % . = - ;   + + + + +   + . + + . @ . @ + +   . + + +   ",
"+ +   + . + > , ' ) + +   +   . +   @ . + + + + . + + + . +   . ",
". $   $ . + # ! ~ { ] ^ + / +   . +   . @ # + . + + @ + . + +   ",
"+ $ $ $ $ +   ( _ : < [ } | 1 2 3 4   + # + + . + . + + + @ +   ",
"% . %   @ + + + 5 6 7 8 9 0 a b c d e +   . + + + + . # @ + + + ",
"  + . + @   + $ % f g h i j k l m n o . + + .   @ + . + # + . + ",
"+ + . +   + + +   @ p q r s t u v w x + @ y . +   + @ +   . + $ ",
"+ # + +   + . % +   + z A B C D E F G H I J + +   + + + + . + + ",
"+ + # % . @   . +   + K L M N O P Q R S T U   V W + . + @ + + . ",
". %   . +   $ . $ + . X Y Z `  ...+.@.#.$.%.&.*.=.+ -.;.+ @ + + ",
"+ . + . +   + $ $   + >.,.'.).!.~.{.].^./.(._.:.<.[.}.|.@ + .   ",
"  . +   + + @   1.+   2.3.4.5.6.7.8.9.0.+ a.b.c.d.e.f.g.  h.. + ",
"  + . + + + i.j.k.l.m.n.o.p.q.r.s.t.u.v.$ + # w.x.y.z.A.B.C.D.+ ",
"+ + . +   + E.F.G.H.I.J.K.L.M.N.O.P.  @ + $   + Q.R.S.T.U.V.% . ",
". + +   + + W.X.Y.Z.`. +.+++@+#+$++ +   % + + +   @ %+&+e.*+. + ",
"+ . +   +   =+-+;++ >+,+'+)+!+~+{++ $   $   + $ +   . ]+^+/+.   ",
"+ . + + . @ (+_+:++   . + <+[+}+|+1+@ + % . + + +   + + 2++ +   ",
"+   @ 3+4+5+6+7+8++ + + . + 9+0+a+b+  + . + @   + + + +   +   . ",
". +   c+d+e+f+g+h++ @ + . + + i+j+k+l+$ . +   + + +   + +   +   ",
"+ .   + # + m+n+o+. + + + @ +   p+q+r+$ $ +   + . % +   + . +   ",
"% . + +   . + + + + . # @ + + + % s+t+u+v++ + +   . + + . % + + ",
"  @ + . + + .   @ + . + # + . +   + $+w+x+y++ $ % . + # @   $ + ",
"@   . + @ + . +   + @ +   . + $ + + . z+A+B+C++   @ + + # + + $ ",
"+ + . + + + + +   + + + + . + + +   + + D+E+F+% +   + $   $ + + ",
"+ # @ +   @   + + + . + @ + + . + +   % . G+H+. +   + $ $ + % . ",
". + # + +   @ + @ + + . + @ + + . %   . +   $ . $ + . % +   . + ",
"+ .   . +   + $   + + . @ + .   + . + . +   + $ $   + . @ + .   "};
