/* XPM */
static char * enemy_3_xpm[] = {
"32 32 350 2",
"  	c #70C725",
". 	c #328530",
"+ 	c #44A318",
"@ 	c #58AC14",
"# 	c #94FF30",
"$ 	c #3A9311",
"% 	c #3D9815",
"& 	c #75999E",
"* 	c #5CB4A2",
"= 	c #938553",
"- 	c #B38E59",
"; 	c #8B8BA7",
"> 	c #6FAA9A",
", 	c #709A9A",
"' 	c #6A878D",
") 	c #74A19F",
"! 	c #4B7A66",
"~ 	c #5A927B",
"{ 	c #B09C59",
"] 	c #EEAD02",
"^ 	c #C89005",
"/ 	c #89797F",
"( 	c #B797B1",
"_ 	c #65B69C",
": 	c #6DC083",
"< 	c #909CA3",
"[ 	c #949A9E",
"} 	c #549E90",
"| 	c #668C8F",
"1 	c #719794",
"2 	c #545F48",
"3 	c #160C04",
"4 	c #241702",
"5 	c #785807",
"6 	c #AC7D04",
"7 	c #B78818",
"8 	c #6E8D95",
"9 	c #B3B4D4",
"0 	c #969FB3",
"a 	c #9093AD",
"b 	c #6AA19E",
"c 	c #4E5A64",
"d 	c #684710",
"e 	c #7F5705",
"f 	c #827A70",
"g 	c #987000",
"h 	c #BF8C04",
"i 	c #836628",
"j 	c #518B7D",
"k 	c #9395B0",
"l 	c #9C9DB7",
"m 	c #689F88",
"n 	c #619F70",
"o 	c #76AB92",
"p 	c #9E7218",
"q 	c #896103",
"r 	c #7E5804",
"s 	c #968472",
"t 	c #7A747D",
"u 	c #8A6C50",
"v 	c #8B6102",
"w 	c #469683",
"x 	c #0F5627",
"y 	c #9A9CB5",
"z 	c #B0B0D0",
"A 	c #797283",
"B 	c #52B07B",
"C 	c #8093A6",
"D 	c #AEA26A",
"E 	c #967F6B",
"F 	c #84673E",
"G 	c #7E6446",
"H 	c #B2AEAB",
"I 	c #69677A",
"J 	c #BC8FA6",
"K 	c #9F627A",
"L 	c #1C4C3B",
"M 	c #0F5829",
"N 	c #6E5263",
"O 	c #8785A1",
"P 	c #61B0A1",
"Q 	c #828AA4",
"R 	c #69B49F",
"S 	c #AE8627",
"T 	c #896624",
"U 	c #A8A09E",
"V 	c #98919D",
"W 	c #7D7C8D",
"X 	c #838692",
"Y 	c #AEACCB",
"Z 	c #7C7999",
"` 	c #485160",
" .	c #504116",
"..	c #A06739",
"+.	c #57A995",
"@.	c #7D7E9E",
"#.	c #77A9AC",
"$.	c #A57B19",
"%.	c #EEAD05",
"&.	c #C08B22",
"*.	c #87766E",
"=.	c #9A9BB2",
"-.	c #7E7C95",
";.	c #71708F",
">.	c #8B8BAA",
",.	c #745D69",
"'.	c #9C4A13",
").	c #61B69F",
"!.	c #767697",
"~.	c #8288A5",
"{.	c #46A42B",
"].	c #C5911A",
"^.	c #D99F05",
"/.	c #8C6502",
"(.	c #A07842",
"_.	c #9D9FBA",
":.	c #9C9BB7",
"<.	c #767494",
"[.	c #7F6E8A",
"}.	c #9A4E1A",
"|.	c #457866",
"1.	c #717393",
"2.	c #8082A1",
"3.	c #9A773F",
"4.	c #B9A194",
"5.	c #8C705E",
"6.	c #947100",
"7.	c #758587",
"8.	c #4D556D",
"9.	c #6B586D",
"0.	c #A3571A",
"a.	c #2F461E",
"b.	c #34765F",
"c.	c #6D6D8E",
"d.	c #7A7A9A",
"e.	c #54B29E",
"f.	c #8C8BA2",
"g.	c #9898B8",
"h.	c #6C6E89",
"i.	c #4A9B8C",
"j.	c #57B29C",
"k.	c #5DA092",
"l.	c #716577",
"m.	c #354727",
"n.	c #115928",
"o.	c #1B5A37",
"p.	c #757594",
"q.	c #626285",
"r.	c #8388A5",
"s.	c #52AA63",
"t.	c #86879F",
"u.	c #BBBADB",
"v.	c #B6B9D9",
"w.	c #9795B4",
"x.	c #6F6881",
"y.	c #82697A",
"z.	c #80919B",
"A.	c #388068",
"B.	c #125928",
"C.	c #115828",
"D.	c #54AE9A",
"E.	c #7C859E",
"F.	c #48486D",
"G.	c #8081A2",
"H.	c #73B1AF",
"I.	c #7D9AA9",
"J.	c #629591",
"K.	c #7E7F98",
"L.	c #6B8F98",
"M.	c #496165",
"N.	c #47475A",
"O.	c #737F92",
"P.	c #1E5F3E",
"Q.	c #31765C",
"R.	c #7BA1AC",
"S.	c #515175",
"T.	c #717193",
"U.	c #767B97",
"V.	c #7AA1A9",
"W.	c #7F98A8",
"X.	c #78A8AC",
"Y.	c #6DBE94",
"Z.	c #5A797D",
"`.	c #3F3E4C",
" +	c #3B4349",
".+	c #70A8A1",
"++	c #51B387",
"@+	c #1B5F3C",
"#+	c #0E582A",
"$+	c #50A08F",
"%+	c #69698B",
"&+	c #535277",
"*+	c #8282A3",
"=+	c #4E667C",
"-+	c #67B0A9",
";+	c #8485A4",
">+	c #628291",
",+	c #6DA4A4",
"'+	c #6D7592",
")+	c #71A5A7",
"!+	c #75ADAC",
"~+	c #7BA3AD",
"{+	c #777E9B",
"]+	c #617789",
"^+	c #494B60",
"/+	c #343346",
"(+	c #789590",
"_+	c #889894",
":+	c #719A97",
"<+	c #4D8B80",
"[+	c #7F809D",
"}+	c #63ACA1",
"|+	c #79809B",
"1+	c #43426B",
"2+	c #6D6E8F",
"3+	c #626184",
"4+	c #44496D",
"5+	c #6D7894",
"6+	c #807E9E",
"7+	c #4F4F75",
"8+	c #625F84",
"9+	c #45436B",
"0+	c #5D6181",
"a+	c #797B9A",
"b+	c #747494",
"c+	c #5D5C81",
"d+	c #373354",
"e+	c #3A3A4B",
"f+	c #292931",
"g+	c #82A1A3",
"h+	c #5CA89A",
"i+	c #788088",
"j+	c #629085",
"k+	c #708B9B",
"l+	c #535077",
"m+	c #49496F",
"n+	c #6D6D90",
"o+	c #43426A",
"p+	c #5A5A7E",
"q+	c #69698C",
"r+	c #434269",
"s+	c #515174",
"t+	c #525179",
"u+	c #2A2944",
"v+	c #403D53",
"w+	c #77A39E",
"x+	c #879594",
"y+	c #868891",
"z+	c #47A745",
"A+	c #747992",
"B+	c #53636C",
"C+	c #669091",
"D+	c #75A0A1",
"E+	c #737393",
"F+	c #43436C",
"G+	c #56567B",
"H+	c #504F75",
"I+	c #48476F",
"J+	c #42416B",
"K+	c #31304D",
"L+	c #1F1E2D",
"M+	c #565368",
"N+	c #6AB4A9",
"O+	c #59B39F",
"P+	c #467E74",
"Q+	c #6C7E8C",
"R+	c #B1DCCF",
"S+	c #9B9CB2",
"T+	c #636687",
"U+	c #9D9EAC",
"V+	c #424268",
"W+	c #2A2843",
"X+	c #403752",
"Y+	c #788486",
"Z+	c #747677",
"`+	c #6F898B",
" @	c #AEBEC0",
".@	c #B4B3C3",
"+@	c #555473",
"@@	c #43436B",
"#@	c #D5D6D8",
"$@	c #9797A4",
"%@	c #333150",
"&@	c #1D1D33",
"*@	c #585166",
"=@	c #749E9A",
"-@	c #8ED6C3",
";@	c #99C3BE",
">@	c #B9BBC1",
",@	c #F2F3F2",
"'@	c #A2A2AC",
")@	c #8A8A9B",
"!@	c #F4F4F3",
"~@	c #8A8995",
"{@	c #3D3B5F",
"]@	c #302E4C",
"^@	c #555366",
"/@	c #738485",
"(@	c #737575",
"_@	c #718489",
":@	c #BCE5DA",
"<@	c #EAEBEC",
"[@	c #F6F4F4",
"}@	c #FDFDFC",
"|@	c #E4E5E5",
"1@	c #F1F1F2",
"2@	c #F2F2F1",
"3@	c #6C6C6C",
"4@	c #2F2E36",
"5@	c #3A3945",
"6@	c #70A89E",
"7@	c #5FB496",
"8@	c #719D98",
"9@	c #BFE4DB",
"0@	c #FCFDFC",
"a@	c #FEFEFD",
"b@	c #FFFEFE",
"c@	c #FEFFFF",
"d@	c #D2D1D4",
"e@	c #4A4A4A",
"f@	c #6D8591",
"g@	c #A4DCCD",
"h@	c #A9DDCF",
"i@	c #E4F3EF",
"j@	c #FDFEFE",
"k@	c #FFFFFF",
"l@	c #FAFAF8",
"m@	c #EEEDF0",
"n@	c #8E919D",
"o@	c #50A483",
"p@	c #98DAC8",
"q@	c #D8EFE8",
"r@	c #FEFEFE",
"s@	c #FDFDFD",
"t@	c #EDEBEF",
"u@	c #83C6B7",
"v@	c #90D7C6",
"w@	c #B0DFD2",
"x@	c #DAF0EA",
"y@	c #FCFBFD",
"z@	c #FEFEFF",
"A@	c #FBFCFC",
"B@	c #E9F4F2",
"C@	c #90D9C4",
"D@	c #83D4C1",
"E@	c #C7E8DF",
"F@	c #CCEAE1",
"G@	c #CDEBE2",
"H@	c #CBEAE1",
"I@	c #BFE5DB",
"  . +   + + @ # @ +   .   + . +   . +   + + @   @ +   .   + . + ",
"  + + + $ + # + + + +   + + + +   + . + + + +   + + +   . + + . ",
"+ +   @ + $   + + . %   + + % . + + . + # + . + + + +   + + + . ",
". + +   % + + +   @ . + +   # + . + + # + + & * +   @ + @ +   + ",
"+ + $   $   + $ +   . + $ + . # + . +   + = - ; > +   + , ' )   ",
"+   @ + % . + + +   + + + + +   + . ! ~ { ] ^ / ( _ : < [ } |   ",
"+ +   + . + @ # + + + +   +   . 1 2 3 4 5 6 7 8 9 0 a b . +   . ",
". $   $ . + # + + +   + +   +   c d e f g h i . j k l m . + +   ",
"n $ $ $ $ +   + . % +   + . + o p q r s t u v w x y z A B @ +   ",
"C . %   @ + + +   . + + . % + D E F G H I J K L M N O P @ + + + ",
"Q R . + @   + $ % . + # @   $ S T U V W X Y Z `  ...+.+ # + . + ",
"@.#.. +   + + +   @ + + # + + $.%.&.*.=.-.;.>.,.'.).@ +   . + $ ",
"!.~.{.+   + . % +   + $   $ + ].^./.(._.:.<.[.}.|.+ + + + . + + ",
"1.2.# % . @   . +   + $ $ + % 3.4.5.6.7.8.9.0.a.b.+ . + @ + + . ",
"c.d.  . +   $ . $ + . % +   e.f.g.h.i.j.k.l.m.n.o.+ + . + @ + + ",
"p.q.r.. s.  + $ $   + . @ + . t.u.v.w.x.y.z.A.B.C.D.+ . @ + .   ",
"E.F.G.H.+ I.@   @ +   .   + . J.K.L.M.N.O.+ @ P.C.Q.  .   + . + ",
"R.S.T.U.+ V.W.  X.+ +   . + + . Y.Z.`. +.++ # ++@+#+$+  + + + + ",
"R %+&+*+=+-+;+>+,+'+)+  !+~+{+]+^+/+(+_+:+$   + + <+[+}++ + % . ",
". |+1+2+3+4+5+6+7+8+9+0+a+b+c+d+e+f+g+  % + + +   @ h+i+j+  . + ",
"+ k+l+m+n+o+1+p+q+r+o+o+s+t+u+v+w+x+y+  $   + $ +   . z+A+B+C+  ",
"+ D+E+F+G+H+I+1+r+o+o+o+J+K+L+M+N+  @ + % . + + +   + + O+P+Q+  ",
"+ R+S+T+o+m+U+J+o+o+1+V+W+X+Y+Z+`++   + . + @   + + + +   +   . ",
". +  @.@+@@@#@$@o+o+r+%@&@*@+   =@$   $ . +   + + +   + +   +   ",
"+ -@;@>@,@'@)@!@~@{@]@^@/@(@_@  + $ $ $ $ +   + . % +   + . +   ",
"% . :@<@[@}@|@1@2@3@4@5@6@7@8@+ % . %   @ + + +   . + + . % + + ",
"  @ + 9@0@a@b@a@c@!@d@e@f@+ . +   + . + @ # + $ % . + # @   $ + ",
"@   g@h@i@j@k@k@k@k@l@m@n@o@+ $ + + . + # + + +   @ + + # + + $ ",
"+ + . p@q@j@k@k@k@k@r@s@t@u@+ + +   + +   + . % +   + $   $ + + ",
"+ # @ v@w@x@y@j@z@z@z@z@A@B@C@. + +   % . @   . +   + $ $ + % . ",
". + # + D@E@F@G@G@G@G@G@F@H@I@+ . %   . +   $ . $ + . % +   . + ",
"+ .   . +   + $   + + . @ + .   + . + . +   + $ $   + . @ + .   "};
