/* XPM */
static char * enemy_5_xpm[] = {
"32 32 285 2",
"  	c #70C725",
". 	c #328530",
"+ 	c #44A318",
"@ 	c #58AC14",
"# 	c #94FF30",
"$ 	c #4B9885",
"% 	c #80808B",
"& 	c #3A9311",
"* 	c #769D7D",
"= 	c #B3964E",
"- 	c #8B6E59",
"; 	c #748191",
"> 	c #649289",
", 	c #76758B",
"' 	c #4A525D",
") 	c #48A745",
"! 	c #678C72",
"~ 	c #BD9002",
"{ 	c #CC9402",
"] 	c #D99E04",
"^ 	c #F6B604",
"/ 	c #BF9158",
"( 	c #8E90AC",
"_ 	c #BAA3BA",
": 	c #9E8AA6",
"< 	c #9599B0",
"[ 	c #7F8293",
"} 	c #57B59E",
"| 	c #3D9815",
"1 	c #57B36D",
"2 	c #7C5A14",
"3 	c #8A6504",
"4 	c #C29005",
"5 	c #C58C05",
"6 	c #BD8B04",
"7 	c #605250",
"8 	c #617A81",
"9 	c #9B9AB6",
"0 	c #B0B0CE",
"a 	c #ABAAC8",
"b 	c #999DBA",
"c 	c #76999C",
"d 	c #49AA5D",
"e 	c #87ADA7",
"f 	c #836C55",
"g 	c #B28342",
"h 	c #9F774F",
"i 	c #8F7D83",
"j 	c #B39787",
"k 	c #854E00",
"l 	c #718C71",
"m 	c #5EC0A5",
"n 	c #3C8576",
"o 	c #A49EC1",
"p 	c #BBBEDA",
"q 	c #9494B0",
"r 	c #56B69D",
"s 	c #50A092",
"t 	c #1A4741",
"u 	c #795000",
"v 	c #9E825D",
"w 	c #A69D93",
"x 	c #A5A6A8",
"y 	c #73718C",
"z 	c #9090AC",
"A 	c #B9ADCA",
"B 	c #D45F67",
"C 	c #807181",
"D 	c #739396",
"E 	c #195B3A",
"F 	c #87879E",
"G 	c #8C7D93",
"H 	c #5F7683",
"I 	c #4A9884",
"J 	c #484A5C",
"K 	c #4B4039",
"L 	c #765005",
"M 	c #755205",
"N 	c #6B4500",
"O 	c #D7D7D3",
"P 	c #585B77",
"Q 	c #707088",
"R 	c #9596AF",
"S 	c #BDB0CE",
"T 	c #999CB7",
"U 	c #ACADCE",
"V 	c #334947",
"W 	c #6B4111",
"X 	c #8B3D0B",
"Y 	c #53AD98",
"Z 	c #2D2817",
"` 	c #896104",
" .	c #8B6203",
"..	c #7E664D",
"+.	c #ABA9AD",
"@.	c #9696B3",
"#.	c #A1A1C0",
"$.	c #979AB6",
"%.	c #989CB1",
"&.	c #7D7FA0",
"*.	c #8080A2",
"=.	c #646588",
"-.	c #AA4F01",
";.	c #49443A",
">.	c #0D201A",
",.	c #55443B",
"'.	c #86776F",
").	c #A59EA4",
"!.	c #747185",
"~.	c #6D6E86",
"{.	c #5A5772",
"].	c #5B5D74",
"^.	c #8D8CAF",
"/.	c #9293B3",
"(.	c #7A7B9B",
"_.	c #604D63",
":.	c #A64E06",
"<.	c #13522D",
"[.	c #3A2712",
"}.	c #4E3C36",
"|.	c #62616E",
"1.	c #8D8FAA",
"2.	c #646387",
"3.	c #7F7FA0",
"4.	c #B1B5D3",
"5.	c #9F9DBE",
"6.	c #636785",
"7.	c #953E22",
"8.	c #684A17",
"9.	c #13592A",
"0.	c #2A6F53",
"a.	c #6A541B",
"b.	c #5A4205",
"c.	c #C89300",
"d.	c #C39A6E",
"e.	c #886A57",
"f.	c #787180",
"g.	c #9D9EBF",
"h.	c #696B89",
"i.	c #6C3D4F",
"j.	c #AC4D03",
"k.	c #235124",
"l.	c #105B2A",
"m.	c #145928",
"n.	c #266B4C",
"o.	c #62BB95",
"p.	c #4F725C",
"q.	c #896105",
"r.	c #A47B02",
"s.	c #BA8A03",
"t.	c #856104",
"u.	c #B98A20",
"v.	c #826435",
"w.	c #88859F",
"x.	c #9F9AAE",
"y.	c #62796F",
"z.	c #2C735C",
"A.	c #0E5424",
"B.	c #12592A",
"C.	c #115B28",
"D.	c #256447",
"E.	c #805707",
"F.	c #D29A05",
"G.	c #E4A604",
"H.	c #AE7D06",
"I.	c #A39798",
"J.	c #878AA2",
"K.	c #9A97B5",
"L.	c #9798B3",
"M.	c #5E8689",
"N.	c #55AF9A",
"O.	c #2D7157",
"P.	c #0F5A26",
"Q.	c #0E5B27",
"R.	c #3E7767",
"S.	c #7A652B",
"T.	c #A17504",
"U.	c #D59A04",
"V.	c #BE8C06",
"W.	c #95858F",
"X.	c #8D8FA8",
"Y.	c #64657A",
"Z.	c #6B6E85",
"`.	c #626583",
" +	c #4BAA5E",
".+	c #3F917B",
"++	c #3C7563",
"@+	c #757990",
"#+	c #6B8D92",
"$+	c #59B6A0",
"%+	c #8C7131",
"&+	c #A87A08",
"*+	c #82620F",
"=+	c #5D7A61",
"-+	c #637B6A",
";+	c #312F48",
">+	c #6A6A7C",
",+	c #4C4C65",
"'+	c #546F7C",
")+	c #5CAD9C",
"!+	c #5F7A82",
"~+	c #A7A1A5",
"{+	c #596C74",
"]+	c #58AB9B",
"^+	c #4D8684",
"/+	c #1B1A27",
"(+	c #7F8092",
"_+	c #6EA596",
":+	c #549E89",
"<+	c #62667A",
"[+	c #66657E",
"}+	c #55767B",
"|+	c #404057",
"1+	c #698E87",
"2+	c #707C8C",
"3+	c #819490",
"4+	c #64938F",
"5+	c #5F978F",
"6+	c #212D37",
"7+	c #60606F",
"8+	c #89AEA8",
"9+	c #396261",
"0+	c #4D585C",
"a+	c #717486",
"b+	c #A1A3AD",
"c+	c #51A194",
"d+	c #020204",
"e+	c #668285",
"f+	c #55A497",
"g+	c #1F252C",
"h+	c #3C3A3F",
"i+	c #50515F",
"j+	c #5AAC3F",
"k+	c #4FAD70",
"l+	c #1E2C35",
"m+	c #31675C",
"n+	c #87B0A5",
"o+	c #8B9997",
"p+	c #829096",
"q+	c #366A64",
"r+	c #030000",
"s+	c #677880",
"t+	c #416967",
"u+	c #2D4E46",
"v+	c #51525B",
"w+	c #51515C",
"x+	c #69A199",
"y+	c #498C86",
"z+	c #07060E",
"A+	c #57827C",
"B+	c #81B9A7",
"C+	c #889F9F",
"D+	c #7D8D94",
"E+	c #151E2C",
"F+	c #030303",
"G+	c #696B77",
"H+	c #4FA481",
"I+	c #55A290",
"J+	c #2A2937",
"K+	c #2D2931",
"L+	c #000000",
"M+	c #2A2C31",
"N+	c #7E98A0",
"O+	c #26253A",
"P+	c #48454F",
"Q+	c #7C9794",
"R+	c #9CA19F",
"S+	c #6E6474",
"T+	c #807C93",
"U+	c #53B287",
"V+	c #2F434C",
"W+	c #10111C",
"X+	c #4B4A56",
"Y+	c #75A3A0",
"Z+	c #58AE43",
"`+	c #133029",
" @	c #565159",
".@	c #010000",
"+@	c #030102",
"@@	c #50A28E",
"#@	c #68A99C",
"$@	c #9FB0AB",
"%@	c #78A3A4",
"&@	c #59AC9D",
"*@	c #5BB49D",
"  . +   + + @ # @ +   .   + . +   . $ % + + @   @ +   .   + . + ",
"  + + + & + # + + + +   + * = - ; > , ' ) + +   + + +   . + + . ",
"+ +   @ + &   + + . ! ~ { ] ^ / ( _ : < [ } . + + + +   + + + . ",
". + +   | + + +   1 2 3 4 5 6 7 8 9 0 a b c + @ +   @ + @ +   + ",
"+ + &   &   + & d e f g h i j k l m n o p q r . + +   + + + @   ",
"+   @ + | . s t u v w x y z A B C D E F G H . @ + +   . + + +   ",
"+ +   + . I J K L M N O P Q R S T U V W X Y + + . + + + . +   . ",
". &   & . + # Z `  ...+.@.#.$.%.&.*.=.-.;.# + . + + @ + . + +   ",
"+ & & & & +   >.,.'.).!.~.{.].^./.(._.:.<.+ + . + . + + + @ +   ",
"| . |   @ + + +   [.}.|.1.2.3.4.5.6.7.8.9.0.+ + + + . # @ + + + ",
"  + . + @   + & | a.b.c.d.e.f.g.h.i.j.k.l.m.n.  @ + . + # + . + ",
"+ + . +   + + + o.p.q.r.s.t.u.v.w.x.y.z.A.B.C.D.  + @ +   . + & ",
"+ # + +   + . | +   E.F.G.H.I.J.K.L.M.+ N.O.P.Q.R.+ + + + . + + ",
"+ + # | . @   . +   S.T.U.V.W.X.Y.Z.`. +  @ .+++@+#+$++ @ + + . ",
". |   . +   & . & + %+&+*+=+-+;+>+,+'++ +   @ + )+!+~+{+]+@ + + ",
"+ . + . +   + & &   + . @ + ^+/+(+_+  . +   + &   + :+<+[+}+.   ",
"  . +   + + @   @ +   .   + |+1+2+3++   + + @ # @ +   . 4+5+. + ",
"  + . + + + +   + + +   . 6+7+8+  + + + & + # + + + +   + + + + ",
"+ + . +   + . + + + +   9+0+a+b++ +   @ + &   + + . |   + + | . ",
". + +   + + + @ + # @ c+d+e+  + . + +   | + + +   @ . + +   . + ",
"+ . +   +   + . + + f+g+h+i+j+  + + &   &   + & +   . + & + .   ",
"+ . + + . @ . @ + k+l+m+n+o+p+  +   @ + | . + + +   + + + + +   ",
"+   @ . + + + + . q+r+s+. +   . + +   + . + @   + + + +   +   . ",
". +   . @ # + . t+u+v+w+x++ +   . &   & . +   + + +   + +   +   ",
"+ .   + # + + y+z+A+B+C+D+@ +   + & & & & +   + . | +   + . +   ",
"| . + +   . + E+F+G+H+# @ + + + | . |   @ + + +   . + + . | + + ",
"  @ + . + I+J+K+L+M+N++ # + . +   + . + @ # + & | . + # @   & + ",
"@   . + @ O+P+Q+R+S+T++   . + & + + . + # + + +   @ + + # + + & ",
"+ + . U+V+W+X+Y+  + +  ++ . + + +   + +   + . | +   + &   & + + ",
"+ # Z+`+ @.@+@+ + + . + @ + + . + +   | . @   . +   + & & + | . ",
". + # @@#@$@@ + %@+ + . + @ + + . |   . +   & . & + . | +   . + ",
"+ .   . +   + &@*@+ + . @ + .   + . + . +   + & &   + . @ + .   "};
