/* XPM */
static char * enemy_4_xpm[] = {
"32 32 322 2",
"  	c #70C725",
". 	c #328530",
"+ 	c #44A318",
"@ 	c #58AC14",
"# 	c #94FF30",
"$ 	c #50A989",
"% 	c #6EC648",
"& 	c #3A9311",
"* 	c #5AB49F",
"= 	c #65938F",
"- 	c #5EB5A2",
"; 	c #65A99B",
"> 	c #5E6D73",
", 	c #7D7E93",
"' 	c #8097A1",
") 	c #3D9815",
"! 	c #899B6F",
"~ 	c #D29903",
"{ 	c #A18474",
"] 	c #81819D",
"^ 	c #63A998",
"/ 	c #959798",
"( 	c #5F797E",
"_ 	c #499783",
": 	c #4AAA5C",
"< 	c #45947F",
"[ 	c #A09C67",
"} 	c #CE9A05",
"| 	c #CB9703",
"1 	c #AF7F06",
"2 	c #877A74",
"3 	c #B49FBC",
"4 	c #719995",
"5 	c #64B5A4",
"6 	c #9996A0",
"7 	c #5DB270",
"8 	c #638B8B",
"9 	c #479E89",
"0 	c #2C584C",
"a 	c #030706",
"b 	c #245344",
"c 	c #422F06",
"d 	c #715304",
"e 	c #E7AB04",
"f 	c #976D05",
"g 	c #7A6C79",
"h 	c #ABA9CC",
"i 	c #C0ACC8",
"j 	c #759A9C",
"k 	c #A3A7C0",
"l 	c #66888C",
"m 	c #61A597",
"n 	c #666D7D",
"o 	c #634203",
"p 	c #654506",
"q 	c #757573",
"r 	c #7C5709",
"s 	c #AF8205",
"t 	c #D19803",
"u 	c #6E5B29",
"v 	c #5BB3A2",
"w 	c #809EA4",
"x 	c #9B99B7",
"y 	c #B2B3D0",
"z 	c #8E8FAA",
"A 	c #508983",
"B 	c #52AD97",
"C 	c #2B5E4F",
"D 	c #7E5500",
"E 	c #785404",
"F 	c #8A6205",
"G 	c #7F6242",
"H 	c #9B9083",
"I 	c #B88A37",
"J 	c #A77804",
"K 	c #B07E0F",
"L 	c #53AF9E",
"M 	c #3B846D",
"N 	c #02501E",
"O 	c #9A9CB4",
"P 	c #BDBDDB",
"Q 	c #8688A3",
"R 	c #687865",
"S 	c #6BA79E",
"T 	c #7C5C25",
"U 	c #896006",
"V 	c #775506",
"W 	c #826E56",
"X 	c #A19FA0",
"Y 	c #8284A4",
"Z 	c #A07579",
"` 	c #664600",
" .	c #456055",
"..	c #0E5325",
"+.	c #004E18",
"@.	c #9695B3",
"#.	c #AAA8C7",
"$.	c #898DAE",
"%.	c #54A493",
"&.	c #A49DA0",
"*.	c #A09588",
"=.	c #9F9392",
"-.	c #BAB7BB",
";.	c #868697",
">.	c #7D7E99",
",.	c #D38A9D",
"'.	c #8A5E6D",
").	c #554F4B",
"!.	c #0B4721",
"~.	c #11572B",
"{.	c #8A4B28",
"].	c #78677C",
"^.	c #59AD9E",
"/.	c #50A793",
"(.	c #BB9024",
"_.	c #8D868C",
":.	c #746E81",
"<.	c #83839C",
"[.	c #807D89",
"}.	c #74748F",
"|.	c #A59FC2",
"1.	c #847D9B",
"2.	c #747392",
"3.	c #0A2B0F",
"4.	c #914D16",
"5.	c #8A7259",
"6.	c #5BB79F",
"7.	c #D09D1B",
"8.	c #CE9704",
"9.	c #C99216",
"0.	c #67595C",
"a.	c #9190A5",
"b.	c #A9A8C9",
"c.	c #6F6E87",
"d.	c #7C7B9B",
"e.	c #A8A7C8",
"f.	c #666680",
"g.	c #994703",
"h.	c #898666",
"i.	c #A4A476",
"j.	c #F1B103",
"k.	c #C08E03",
"l.	c #755905",
"m.	c #B98523",
"n.	c #9596B3",
"o.	c #797994",
"p.	c #9998B4",
"q.	c #7E809E",
"r.	c #777395",
"s.	c #A75B36",
"t.	c #693D17",
"u.	c #4DA191",
"v.	c #8DA57E",
"w.	c #E4A713",
"x.	c #B98A3C",
"y.	c #7E5D24",
"z.	c #C99402",
"A.	c #A48E84",
"B.	c #6E7091",
"C.	c #4C4D6E",
"D.	c #6F667D",
"E.	c #A55626",
"F.	c #6B460F",
"G.	c #105A28",
"H.	c #3F8774",
"I.	c #51A892",
"J.	c #9E8C8C",
"K.	c #BBBDDE",
"L.	c #9A9BB8",
"M.	c #97724B",
"N.	c #D19903",
"O.	c #5D4300",
"P.	c #406D62",
"Q.	c #776377",
"R.	c #534121",
"S.	c #115629",
"T.	c #115927",
"U.	c #1B5A3A",
"V.	c #84839D",
"W.	c #9696B6",
"X.	c #807F9C",
"Y.	c #757384",
"Z.	c #997033",
"`.	c #817B94",
" +	c #827A8C",
".+	c #8889A3",
"++	c #40786D",
"@+	c #115827",
"#+	c #125928",
"$+	c #135A28",
"%+	c #408773",
"&+	c #5C6A75",
"*+	c #A7A6C9",
"=+	c #B8B7D8",
"-+	c #AFB0CE",
";+	c #84859E",
">+	c #534154",
",+	c #8A87A2",
"'+	c #558C81",
")+	c #42937B",
"!+	c #0F5827",
"~+	c #0F5B29",
"{+	c #185834",
"]+	c #4FAC95",
"^+	c #3A8E4F",
"/+	c #5C5D61",
"(+	c #4E4F60",
"_+	c #3E3A55",
":+	c #121024",
"<+	c #797891",
"[+	c #4A9E88",
"}+	c #105225",
"|+	c #105D29",
"1+	c #2D5241",
"2+	c #61562C",
"3+	c #363132",
"4+	c #525663",
"5+	c #828B84",
"6+	c #707180",
"7+	c #79DE7E",
"8+	c #479985",
"9+	c #74798E",
"0+	c #747E96",
"a+	c #5A8E86",
"b+	c #67BB95",
"c+	c #4CA190",
"d+	c #232834",
"e+	c #353540",
"f+	c #529F53",
"g+	c #4C9361",
"h+	c #51B07B",
"i+	c #56A492",
"j+	c #81868C",
"k+	c #938C94",
"l+	c #5C757E",
"m+	c #519384",
"n+	c #5C9E90",
"o+	c #54AE9B",
"p+	c #24353E",
"q+	c #60606E",
"r+	c #151517",
"s+	c #7EAC75",
"t+	c #5F747C",
"u+	c #45404A",
"v+	c #767392",
"w+	c #797F96",
"x+	c #54B692",
"y+	c #377969",
"z+	c #232D3C",
"A+	c #537270",
"B+	c #86B9A8",
"C+	c #8F9C9C",
"D+	c #989AA1",
"E+	c #51AF9B",
"F+	c #52B07D",
"G+	c #56AF94",
"H+	c #40897A",
"I+	c #26252F",
"J+	c #050208",
"K+	c #7A8697",
"L+	c #305E55",
"M+	c #332F3C",
"N+	c #686E7D",
"O+	c #7F8281",
"P+	c #5F5766",
"Q+	c #6AA198",
"R+	c #2E564E",
"S+	c #1F1E2B",
"T+	c #706578",
"U+	c #63AD9E",
"V+	c #6FB697",
"W+	c #74918E",
"X+	c #749393",
"Y+	c #387068",
"Z+	c #4F5063",
"`+	c #65696B",
" @	c #2B2B2E",
".@	c #718890",
"+@	c #55B39E",
"@@	c #193237",
"#@	c #252236",
"$@	c #7B8393",
"%@	c #76B5A5",
"&@	c #8F9FA1",
"*@	c #8F939B",
"=@	c #50AC98",
"-@	c #22403F",
";@	c #24203B",
">@	c #010206",
",@	c #69687A",
"'@	c #5EA99A",
")@	c #4EAD6F",
"!@	c #489F8A",
"~@	c #435158",
"{@	c #7F8494",
"]@	c #777482",
"^@	c #484947",
"/@	c #201F26",
"(@	c #7F999D",
"_@	c #449184",
":@	c #212333",
"<@	c #1B1A24",
"[@	c #7C8493",
"}@	c #68B7A2",
"|@	c #92B3AB",
"1@	c #748484",
"2@	c #8A8E96",
"3@	c #605B6D",
"4@	c #0D0D15",
"5@	c #010303",
"6@	c #6F717F",
"7@	c #5FAF9B",
"8@	c #5FAC9B",
"9@	c #6DA49F",
"0@	c #8BAA7D",
"a@	c #28292E",
"b@	c #7A9F9C",
"c@	c #61CEB4",
"d@	c #64CAB4",
"e@	c #67B39F",
"f@	c #778C91",
"g@	c #6C777A",
"  . +   + + @ # @ +   .   + . +   . +   + + @   @ +   $ % + . + ",
"  + + + & + # + + + +   + + + +   + * = - + +   + ; > , ' + + . ",
"+ +   @ + &   + + . )   + + ) . + ! ~ { ] ^ . + + / ( _ + + + . ",
". + +   ) + + +   @ . + :   < + [ } | 1 2 3 4 @ 5 6 7 + @ +   + ",
"+ + &   &   + & +   . 8 9 0 a b c d e f g h i j k l   + + + @   ",
"+   @ + ) . + + +   + m n o p q r s t u v w x y z A   . + + +   ",
"+ +   + . + @ # + + B C D E F G H I J K L M N O P Q R + . +   . ",
". &   & . + # + + +   S T U V W X Y Z `  ...+.@.#.$.%.+ . + +   ",
"+ & & & & +   + . ) + %.&.*.=.-.;.>.,.'.).!.~.{.].^.+ + + @ +   ",
") . )   @ + + +   . + /.(._.:.<.[.}.|.1.2.3.4.5.+ + . # @ + + + ",
"  + . + @   + & ) . 6.7.8.9.0.a.b.c.d.e.f.g.h.  @ + . + # + . + ",
"+ + . +   + + +   @ i.j.k.l.m.n.o.p.q.r.s.t.u.+   + @ +   . + & ",
"+ # + +   + . ) +   v.w.x.y.z.A.B.C.D.E.F.G.H.+   + + + + . + + ",
"+ + # ) . @   . +   I.J.K.L.M.N.O.P.Q.R.S.T.U.+ + + . + @ + + . ",
". )   . +   & . & + . V.W.X.Y.Z.`. +.+++@+#+$+%+@ + + . + @ + + ",
"+ . + . +   + & &   + &+*+=+-+;+>+,+'+. )+!+~+{+]++ + . @ + .   ",
"  . +   + + @   @ +   ^+/+(+_+:+<+. +   + [+}+|+1++   .   + . + ",
"  + . + + + +   + + +   2+3+4+5+6++ + + & + 7+8+9+0+a+b++ + + + ",
"+ + . +   + . + + + + c+d+e+f+g++ +   @ + &   + h+i+j+k+l+m+n+. ",
". + +   + + + @ + # o+p+q+r+s++ . + +   ) + + +   @ . t+u+v+w+x+",
"+ . +   +   + . + y+z+A+B+C+D+E++ + &   &   + & +   . + & F+G+  ",
"+ . + + . @ . @ H+I+J+K++ + +   +   @ + ) . + + +   + + + + +   ",
"+   @ . + + + L+M+N+O+P+Q++   . + +   + . + @   + + + +   +   . ",
". +   . @ # R+S+T+U+V+W+X++ +   . &   & . +   + + +   + +   +   ",
"+ .   + # Y+Z+`+ @.@+ + + @ +   + & & & & +   + . ) +   + . +   ",
") . + +@@@#@$@%@&@*@=@# @ + + + ) . )   @ + + +   . + + . ) + + ",
"  @ + -@;@>@,@'@@ )@. + # + . +   + . + @ # + & ) . + # @   & + ",
"@ !@~@{@]@^@/@(@  + @ +   . + & + + . + # + + +   @ + + # + + & ",
"_@:@<@[@}@|@1@2@  + + + + . + + +   + +   + . ) +   + &   & + + ",
"3@4@5@6@7@@   8@+ + . + @ + + . + +   ) . @   . +   + & & + ) . ",
"9@+ 0@a@b@  @ + @ + + . + @ + + . )   . +   & . & + . ) +   . + ",
"c@d@e@f@g@  + &   + + . @ + .   + . + . +   + & &   + . @ + .   "};
