/* XPM */
static char * enemy_2_xpm[] = {
"32 32 361 2",
"  	c #70C725",
". 	c #328530",
"+ 	c #44A318",
"@ 	c #58AC14",
"# 	c #94FF30",
"$ 	c #73B2AC",
"% 	c #76AAAC",
"& 	c #7F9DAB",
"* 	c #7C9CA9",
"= 	c #7D9CA9",
"- 	c #7C9BA8",
"; 	c #569577",
"> 	c #3A9311",
", 	c #77A9AC",
"' 	c #7B89A1",
") 	c #6D6C8D",
"! 	c #5E5B80",
"~ 	c #535376",
"{ 	c #686889",
"] 	c #767797",
"^ 	c #74889C",
"/ 	c #73BC75",
"( 	c #5CA673",
"_ 	c #75A6A6",
": 	c #76A5AA",
"< 	c #6D708F",
"[ 	c #545479",
"} 	c #47466D",
"| 	c #5C5C7F",
"1 	c #777798",
"2 	c #8384A3",
"3 	c #8485A4",
"4 	c #8289A5",
"5 	c #828BA5",
"6 	c #828DA5",
"7 	c #7D9FAB",
"8 	c #5FAB86",
"9 	c #7C85A0",
"0 	c #525176",
"a 	c #43436B",
"b 	c #5E5E80",
"c 	c #7D7D9F",
"d 	c #8081A2",
"e 	c #747594",
"f 	c #777898",
"g 	c #8282A2",
"h 	c #8484A4",
"i 	c #8585A5",
"j 	c #8386A4",
"k 	c #7D9DA9",
"l 	c #7DB2B4",
"m 	c #6B6A8C",
"n 	c #43436A",
"o 	c #48486E",
"p 	c #6B6B8E",
"q 	c #6D6D8F",
"r 	c #626285",
"s 	c #656588",
"t 	c #69698C",
"u 	c #56567B",
"v 	c #525177",
"w 	c #5A597D",
"x 	c #6A6A8D",
"y 	c #6B6B8D",
"z 	c #7B7B9C",
"A 	c #8484A5",
"B 	c #8289A3",
"C 	c #87B9BD",
"D 	c #787496",
"E 	c #424369",
"F 	c #44436B",
"G 	c #515176",
"H 	c #59597E",
"I 	c #5E5D82",
"J 	c #4E4D73",
"K 	c #42416A",
"L 	c #44436C",
"M 	c #43426B",
"N 	c #434269",
"O 	c #43426A",
"P 	c #5A5A7F",
"Q 	c #707093",
"R 	c #8383A3",
"S 	c #57A15E",
"T 	c #76AFB0",
"U 	c #6A6B8B",
"V 	c #42426B",
"W 	c #646488",
"X 	c #4D4C72",
"Y 	c #48486F",
"Z 	c #6B6B8B",
"` 	c #7F7FA0",
" .	c #8485A5",
"..	c #8583A3",
"+.	c #679D7F",
"@.	c #80838B",
"#.	c #32354F",
"$.	c #44426B",
"%.	c #6F6F90",
"&.	c #59587D",
"*.	c #46456D",
"=.	c #626183",
"-.	c #747494",
";.	c #8281A3",
">.	c #8383A5",
",.	c #8483A5",
"'.	c #757595",
").	c #5B5B7F",
"!.	c #45436B",
"~.	c #68688A",
"{.	c #8385A5",
"].	c #8584A5",
"^.	c #74B6B0",
"/.	c #84B8B2",
"(.	c #3B3B3C",
"_.	c #2F313B",
":.	c #8E8DAB",
"<.	c #60607F",
"[.	c #44426D",
"}.	c #47476E",
"|.	c #676789",
"1.	c #757596",
"2.	c #636788",
"3.	c #56868B",
"4.	c #60ADA4",
"5.	c #70C086",
"6.	c #72B2AD",
"7.	c #7693A4",
"8.	c #6A6C8B",
"9.	c #4D4A71",
"0.	c #69698A",
"a.	c #7C97A7",
"b.	c #808B9D",
"c.	c #748694",
"d.	c #76ABAA",
"e.	c #58747A",
"f.	c #282744",
"g.	c #363455",
"h.	c #58587D",
"i.	c #4B4B70",
"j.	c #4F6F7F",
"k.	c #4DAA60",
"l.	c #3D9815",
"m.	c #4BA749",
"n.	c #6EB6AB",
"o.	c #469E48",
"p.	c #72A5A9",
"q.	c #5A607F",
"r.	c #646387",
"s.	c #808189",
"t.	c #000000",
"u.	c #342F4E",
"v.	c #383859",
"w.	c #43436C",
"x.	c #444269",
"y.	c #598A90",
"z.	c #66C4B2",
"A.	c #75AEAD",
"B.	c #7D94A7",
"C.	c #8192A8",
"D.	c #77ABAD",
"E.	c #70B6AA",
"F.	c #4CAA5D",
"G.	c #52818A",
"H.	c #555579",
"I.	c #8286A5",
"J.	c #79A2AA",
"K.	c #727184",
"L.	c #74929C",
"M.	c #638D92",
"N.	c #2C2B3E",
"O.	c #333151",
"P.	c #597E8C",
"Q.	c #76B0AE",
"R.	c #7C849F",
"S.	c #64768F",
"T.	c #63ACA5",
"U.	c #69C272",
"V.	c #65957F",
"W.	c #539987",
"X.	c #657C86",
"Y.	c #52B07B",
"Z.	c #50858A",
"`.	c #8484A3",
" +	c #6DB1AC",
".+	c #8C9E9F",
"++	c #27232C",
"@+	c #373548",
"#+	c #5D7381",
"$+	c #6E6E90",
"%+	c #4A697C",
"&+	c #5DB494",
"*+	c #C49B37",
"=+	c #A8824E",
"-+	c #7B5C2B",
";+	c #7A5604",
">+	c #896000",
",+	c #555652",
"'+	c #4C9F89",
")+	c #4F7C87",
"!+	c #767898",
"~+	c #5CB4A1",
"{+	c #7F859D",
"]+	c #79A7AC",
"^+	c #6F9190",
"/+	c #1D1C2C",
"(+	c #344453",
"_+	c #629899",
":+	c #6C7890",
"<+	c #926B16",
"[+	c #B58305",
"}+	c #948173",
"|+	c #86735F",
"1+	c #896004",
"2+	c #8F7C63",
"3+	c #8A8887",
"4+	c #000002",
"5+	c #4C9D8A",
"6+	c #5C7188",
"7+	c #7E8082",
"8+	c #50515E",
"9+	c #3C3F49",
"0+	c #588E8B",
"a+	c #666788",
"b+	c #5D647E",
"c+	c #8D8DAB",
"d+	c #876E58",
"e+	c #6D4E04",
"f+	c #6F5C50",
"g+	c #AAA7AC",
"h+	c #A7A5A2",
"i+	c #B9B9BA",
"j+	c #37302A",
"k+	c #8F6805",
"l+	c #868F67",
"m+	c #5AACA0",
"n+	c #71899D",
"o+	c #61B3A1",
"p+	c #769596",
"q+	c #65B5A6",
"r+	c #81A8A3",
"s+	c #2C293E",
"t+	c #3C6C67",
"u+	c #659B9A",
"v+	c #9D9CB9",
"w+	c #6F7889",
"x+	c #7A6F45",
"y+	c #655C65",
"z+	c #A2A1B8",
"A+	c #9999A9",
"B+	c #847A85",
"C+	c #806029",
"D+	c #815E04",
"E+	c #A67A0A",
"F+	c #5EA59E",
"G+	c #7A858A",
"H+	c #56565F",
"I+	c #2C2F3D",
"J+	c #42766C",
"K+	c #ABAECD",
"L+	c #88AEB2",
"M+	c #66A08F",
"N+	c #81839E",
"O+	c #77788E",
"P+	c #8E7161",
"Q+	c #D49B21",
"R+	c #624805",
"S+	c #956E04",
"T+	c #A47805",
"U+	c #59B49D",
"V+	c #81A49F",
"W+	c #70B4A8",
"X+	c #87989B",
"Y+	c #161826",
"Z+	c #8F8EA5",
"`+	c #7AADA9",
" @	c #586579",
".@	c #BB91AC",
"+@	c #B68515",
"@@	c #E7AB02",
"#@	c #D49A08",
"$@	c #835D04",
"%@	c #737252",
"&@	c #8C8F95",
"*@	c #52525B",
"=@	c #9191AE",
"-@	c #59988D",
";@	c #786C87",
">@	c #A2846F",
",@	c #B78607",
"'@	c #CA9403",
")@	c #9A7012",
"!@	c #68BE88",
"~@	c #57B49F",
"{@	c #65B6A5",
"]@	c #838099",
"^@	c #6D6A7A",
"/@	c #545B6F",
"(@	c #676B86",
"_@	c #957238",
":@	c #B98C4A",
"<@	c #B59F9B",
"[@	c #536953",
"}@	c #459C84",
"|@	c #73AAA2",
"1@	c #A06E45",
"2@	c #373F5A",
"3@	c #3F4A66",
"4@	c #353E53",
"5@	c #928EA9",
"6@	c #B07F9A",
"7@	c #5F697C",
"8@	c #0F5A28",
"9@	c #2C7258",
"0@	c #6EC64A",
"a@	c #9C6944",
"b@	c #68727D",
"c@	c #5E6A75",
"d@	c #999DB7",
"e@	c #C89FBB",
"f@	c #9E5E73",
"g@	c #628B88",
"h@	c #3C8974",
"i@	c #696E80",
"j@	c #6A9898",
"k@	c #619C97",
"l@	c #9798B4",
"m@	c #BABCDB",
"n@	c #A4A5C2",
"o@	c #739286",
"p@	c #58B289",
"q@	c #4BAA5D",
"r@	c #698789",
"s@	c #77898C",
"t@	c #60B6A0",
"u@	c #8F9AAF",
"v@	c #9F9FBC",
"w@	c #76706A",
"x@	c #607E86",
"y@	c #585E6F",
"z@	c #52AB95",
"A@	c #4F593B",
"B@	c #625915",
"C@	c #5AB39E",
"D@	c #6B858B",
"E@	c #205E3B",
"F@	c #264830",
"G@	c #74A1A3",
"H@	c #8B91A9",
"I@	c #5DB29E",
"J@	c #8692A1",
"K@	c #47A745",
"L@	c #8F8B93",
"M@	c #5BAD99",
"N@	c #858AA2",
"O@	c #5A8B89",
"P@	c #517F79",
"Q@	c #898DA5",
"R@	c #6BBB98",
"S@	c #5FB4A0",
"T@	c #57A490",
"  . +   + + @ # @ +   $ % & * = - ; +   + + @   @ +   .   + . + ",
"  + + + > + # + , ' ) ! ~ { ] ^ / + . ( _ + +   + + +   . + + . ",
"+ +   @ + > : < [ } | 1 2 3 3 4 5 6 7 + # + . + + + +   + + + . ",
". + +   8 9 0 a b c d e f g 3 3 3 h 3 i j k + @ +   @ + @ +   + ",
"+ + > l m n o p q r s t s u v v w x y z A A B . + +   + + + @   ",
"+   C D E F G H I J K L M N O O O O P r Q R i A + S   . + + +   ",
"+ T U V O u W X O O O M a O O N O M M M Y Z `  ...+.+ + . +   . ",
". @.#.$.%.&.O O M O *.=.-.;.>.,.R '.%.).!.X ~.3 {.]. .^.. + +   ",
"/.(._.:.<.[.O O }.|.1.2.3.4.+   + . 5.6.7.8.9.0.i 3 3 a.+ @ +   ",
"b.c.d.e.f.g.O O h.i.j.k.. l.m.n.o.. + +   . p.q.r.R 3 3 @ + + + ",
"  + . s.t.u.v.w.x.y.z.A.B.C.D.E.  @ + . F.+ .   G.H.i I.# + . + ",
"+ + J.K.L.M.N.O.P.Q.R.S.T.+ + > @ U.V.W.X.Y.. +   Z.p `.  . + > ",
"+ #  ++   .+++@+#+$+%+>   > &+*+=+-+;+>+,+'++ +   + )+!++ . + + ",
"+ + # l.~+{+]+^+/+(++ > _+:+<+[+}+|+1+2+3+4+5++ + + . 6+@ + + . ",
". l.  . +   > 7+8+9+0+a+b+c+d+e+f+g+h+i+j+k+l++ @ + + m+n+@ + + ",
"+ . + . +   o+p+q+r+s+t+u+v+w+x+y+z+A+B+C+D+E+>   + + . F++ .   ",
"  . +   + + @   @ G+H+I+J+K+L+M+N+O+P+Q+R+S+T+U+@ +   .   + . + ",
"  + . + + + +   + V+W+X+Y+Z+`+.  @.@+@@@#@$@%@+ + + +   + + + + ",
"+ + . +   + . + + + + &@*@=@-@. + ;@>@,@'@)@!@+ + . l.  + + l.. ",
". + +   + + + @ + # @ ~@{@]@^@+ . /@(@_@:@<@[@}@  @ . + +   . + ",
"+ . +   +   + . + + # + + + |@1@+ 2@3@4@5@6@7@8@9@  . + > + .   ",
"+ . + + . @ . @ + +   . + + + 0@a@b@c@d@e@f@g@h@i@j@+ + + + +   ",
"+   @ . + + + + . + + + . +   . k@l@m@n@o@p@@   q@r@s@t@  +   . ",
". +   . @ # + . + + @ + . + +   . u@v@w@. +   + + + x@y@+   +   ",
"+ .   + # + + . + . + + + @ +   + z@A@B@> +   + . l.C@D@+ . +   ",
"l.. + +   . + + + + . # @ + + + l.. E@F@@ + + +   . + + . l.+ + ",
"  @ + . + + .   @ + . + # + . +   + G@H@@ # + > l.. + # @   > + ",
"@   . + @ + . +   + @ +   . + > + + I@J@# + + +   @ + + # + + > ",
"+ + . + + + + +   + + + + . + + +   K@L@M@+ . l.+   + >   > + + ",
"+ # @ +   @   + + + . + @ + + . + +   N@O@@   . +   + > > + l.. ",
". + # + +   @ + @ + + . + @ + + . l.  P@Q@R@> . > + . l.+   . + ",
"+ .   . +   + >   + + . @ + .   + . + S@T@  + > >   + . @ + .   "};
