/* XPM */
static char * exit_xpm[] = {
"32 32 17 1",
" 	c #70C725",
".	c #328530",
"+	c #44A318",
"@	c #58AC14",
"#	c #94FF30",
"$	c #3A9311",
"%	c #3D9815",
"&	c #000000",
"*	c #84827B",
"=	c #FFFBFF",
"-	c #BD7900",
";	c #E7B231",
">	c #FFFB00",
",	c #D6D3D6",
"'	c #9C0000",
")	c #FF4918",
"!	c #ADAAAD",
" .+ ++@#@+ . +.+ .+ ++@ @+ . +.+",
" +++$+#++++ ++++ +.++++ +++ .++.",
"++ @+$ ++.% ++%.++.+#+.++++ +++.",
".++ %+++ @.++ #+.++#+++@+ @+@+&+",
"++$ $ +$+ .+$+.#+.+ + +.++ ++&& ",
"+ @+&&&&&&+++++ +.++.@.@++&&&&& ",
"+&&&&&&&&&&&&& .+ @.+++&&&&&&& .",
"&&&&&&&&&&&&&&&&&&&&&&&&&&&&&&+ ",
"&&&&&&&&&&&&&&&&&&&&&&&&&&&&&@+ ",
"&&&&&&&*=&&&&-;>;-&&&&=*&&&&@&++",
"&&&&&&&==&&&;>>>>>;&&&==&&&&&&.+",
"&&&&&&&&*=&-;>>>>>;-&=*&&&&&&&+$",
"&&&&&&&&&*,'')))))'',*&&&&&&+.++",
"&&&&&&&&&&&&&&&&&&&&&&&&&&&&&++.",
"&&&&&&&&;;>>>>>>>>>>>;;&&&&&&@++",
"+&&&&&&&&&&&&&&&&&&&&&&&&&&&&+. ",
" &&&&&&&&&&=&&&=&&&=&&&&&&&& +.+",
" &&&&&&&&&&,!&!=!&!,&&&&&&& +&&+",
"+&&&&&&&&&&*,==&==,*&&&&&&&&&&&.",
".&&&&&&&&&&=&!===!&=&&&&&&&&&&&+",
"+&&&&&&&&&=***&&&***=&&&&&&&&&. ",
"+&&&&&&&&=*&&!=!=!&&*=&&&&&&&&+ ",
"+&&&&&&==*&&&,*&*,&&&*==&&&&&&&.",
".+&&&&&*=&&&&&===&&&&&=*&&&&&&& ",
"+.&&&&&&&&&&&&&&&&&&&&&&&&&&&&+ ",
"%.&&&&&&&&&&&&&&&&&&&&&&&&&&&%++",
" @&&&&&&&&&&&&&&&&&&&&&&&&+#@ $+",
"@ &&&&.+ +@+&&&&&&&&&&&+ @++#++$",
"++&&++++ ++++.+++ ++ +.%+ +$ $++",
"+#@+ @ +++.+@++.++ %.@ .+ +$$+%.",
".+#++ @+@++.+@++.% .+ $.$+.%+ .+",
"+. .+ +$ ++.@+. +.+.+ +$$ +.@+. "};
