/* XPM */
static char * exit_1_xpm[] = {
"32 32 193 2",
"  	c #70C725",
". 	c #328530",
"+ 	c #44A318",
"@ 	c #58AC14",
"# 	c #94FF30",
"$ 	c #3A9311",
"% 	c #A49484",
"& 	c #EBECEC",
"* 	c #D7D7D8",
"= 	c #D8D8D8",
"- 	c #D6D1CD",
"; 	c #988470",
"> 	c #EAEAEA",
", 	c #8B7F09",
"' 	c #B7A800",
") 	c #BFB303",
"! 	c #BBBBB1",
"~ 	c #E0DDDA",
"{ 	c #3D9815",
"] 	c #998672",
"^ 	c #838383",
"/ 	c #BBAB00",
"( 	c #F2F100",
"_ 	c #F8F800",
": 	c #AEAE00",
"< 	c #E2E0DD",
"[ 	c #858585",
"} 	c #DAD300",
"| 	c #C9C2BC",
"1 	c #E3E0DE",
"2 	c #E3E1DE",
"3 	c #BEB4AC",
"4 	c #897052",
"5 	c #EEECEB",
"6 	c #A6A397",
"7 	c #9B9B00",
"8 	c #9E9E1D",
"9 	c #E7E7E9",
"0 	c #F2F2F1",
"a 	c #D9D4D0",
"b 	c #D8D3CF",
"c 	c #E6E6E6",
"d 	c #A0A0A1",
"e 	c #9F9F9F",
"f 	c #000000",
"g 	c #6E6E6F",
"h 	c #ACABAA",
"i 	c #B0A397",
"j 	c #BDBDBD",
"k 	c #939393",
"l 	c #424242",
"m 	c #8A8B8B",
"n 	c #BABABA",
"o 	c #F0F0F0",
"p 	c #BCBDBD",
"q 	c #A5A5A5",
"r 	c #4B4B4B",
"s 	c #171717",
"t 	c #8C8C8C",
"u 	c #6E6201",
"v 	c #E3DE05",
"w 	c #FBFB00",
"x 	c #939300",
"y 	c #B4B4B4",
"z 	c #8D8D8D",
"A 	c #8D765B",
"B 	c #BCBCBC",
"C 	c #CFCFCF",
"D 	c #626262",
"E 	c #555555",
"F 	c #7F7F7F",
"G 	c #DFDFDF",
"H 	c #2C2D2E",
"I 	c #817700",
"J 	c #F4BE1E",
"K 	c #F8EA0D",
"L 	c #F4E400",
"M 	c #A19B6B",
"N 	c #1C1C1C",
"O 	c #757575",
"P 	c #F0EFEF",
"Q 	c #BBBBBB",
"R 	c #F6F6F6",
"S 	c #7A7A7A",
"T 	c #B5B5B5",
"U 	c #292929",
"V 	c #A6A7A7",
"W 	c #A12900",
"X 	c #D66503",
"Y 	c #E18201",
"Z 	c #655500",
"` 	c #695700",
" .	c #6D6942",
"..	c #564213",
"+.	c #060400",
"@.	c #E7E7E7",
"#.	c #EDEBEA",
"$.	c #D7D302",
"%.	c #E1AD19",
"&.	c #E1AE1C",
"*.	c #A08B28",
"=.	c #717100",
"-.	c #72720C",
";.	c #737312",
">.	c #725609",
",.	c #0C0700",
"'.	c #020202",
").	c #2D2D2D",
"!.	c #878787",
"~.	c #988571",
"{.	c #010100",
"].	c #8A8C8D",
"^.	c #000818",
"/.	c #DCDCDC",
"(.	c #3A3A3A",
"_.	c #818181",
":.	c #848484",
"<.	c #131313",
"[.	c #929292",
"}.	c #EBE9E7",
"|.	c #7E7A47",
"1.	c #A4A4A4",
"2.	c #D0D0D0",
"3.	c #D3D3D3",
"4.	c #F3F3F3",
"5.	c #E4E4E4",
"6.	c #727272",
"7.	c #010101",
"8.	c #C4C4C4",
"9.	c #D2CCC7",
"0.	c #696969",
"a.	c #6F6F6F",
"b.	c #BFBFBF",
"c.	c #787878",
"d.	c #E4E3E3",
"e.	c #808080",
"f.	c #A9A9A9",
"g.	c #8F8F8F",
"h.	c #AAAAAA",
"i.	c #252525",
"j.	c #040404",
"k.	c #B6B6B6",
"l.	c #CDCDCD",
"m.	c #E0E0E0",
"n.	c #E2DFDC",
"o.	c #797979",
"p.	c #7D7D7D",
"q.	c #959595",
"r.	c #0E0E0E",
"s.	c #3D3D3D",
"t.	c #2E2E2E",
"u.	c #1D1D1D",
"v.	c #141414",
"w.	c #E9E9E9",
"x.	c #A89A8B",
"y.	c #737373",
"z.	c #333333",
"A.	c #E1E0E0",
"B.	c #E5E4E4",
"C.	c #474747",
"D.	c #3C3C3C",
"E.	c #494949",
"F.	c #EBEAEA",
"G.	c #B4A89D",
"H.	c #0A0A0A",
"I.	c #090909",
"J.	c #060606",
"K.	c #D4D4D4",
"L.	c #DBDBDB",
"M.	c #AA9B8D",
"N.	c #947F69",
"O.	c #AA9C8E",
"P.	c #A7988A",
"Q.	c #9D9D9D",
"R.	c #525252",
"S.	c #E0DBD8",
"T.	c #BEB4AB",
"U.	c #F2F1F1",
"V.	c #C8C8C8",
"W.	c #C9C9C9",
"X.	c #C2BCB7",
"Y.	c #BFB5AD",
"Z.	c #BDBDBE",
"`.	c #868686",
" +	c #484848",
".+	c #C7C0B8",
"++	c #EDEDED",
"@+	c #BEBEBD",
"#+	c #666665",
"$+	c #C1B8AF",
"%+	c #8B7255",
"&+	c #E2E2E1",
"*+	c #AB9D91",
"  . +   + + @ # @ +   .   + . +   . +   + + @   @ +   .   + . + ",
"  + + + $ % & * = - +   + + + +   + . + + + +   + + +   . + + . ",
"+ +   @ ; > , ' ) ! ~   + + { . + + . + # + . + + + +   + + + . ",
". + +   ] ^ / ( _ : < + +   # + . + + # + + + @ +   @ + @ +   + ",
"+ + $   ] [ } _ _ : < + $ + . | 1 2 2 2 2 2 3 . + +   + + + @   ",
"+   @ + 4 5 6 7 8 9 0 a b c d e f f f f f f g h a i   . + + +   ",
"+ +   + . + j k l f f f f f f f f f f f f f f f f m n o . +   . ",
". $   $ . + p q r f f f f s t f f u v w x f y z f f h A . + +   ",
"+ $ $ $ $ + B C D E f f f F G H I J K L L M n N f f O P + @ +   ",
"{ . {   @ + Q R S T f f f f U V W X Y Z `  ...+.f f @.#.@ + + + ",
"  + . + @   Q R S T f f f f $.%.&.&.*.=.-.;.>.,.'.).!.~.# + . + ",
"+ + . +   + Q R S T f f f {.f f ].^./.(._.:.f f <.[.}.|.  . + $ ",
"+ # + +   + Q R S T f f f f f f 1.2.3.4.5.6.7.f f f 8.9.+ . + + ",
"+ + # { . @ Q R S T f f f f f f 0.a.0.[.s b.c.f f 7.f d.@ + + . ",
". {   . +   Q R S T f f f f e.f.f f.g.h.i.j.k.l.f f m.n.+ @ + + ",
"+ . + . +   Q R o.h.f f f f p.q.f r.s.t.f f u.v.f f w.x.@ + .   ",
"  . +   + + Q R y.f f f f f f f f f f z.A.B.w.C.D.D.E.F.G.+ . + ",
"  + . + + + Q R y.H.I.I.f f f J.f K.L.M.$ + N.O.O.O.O.P.+ + + + ",
"+ + . +   + j Q.R.S.T.U.V.W.W.X.Y.+   @ + $   + + . {   + + { . ",
". + +   + + Z.`. +.+@ + @ +   + . + +   { + + +   @ . + +   . + ",
"+ . +   +   Q R S .+# + + + @   + + $   $   + $ +   . + $ + .   ",
"+ . + + . @ Q R S .+  . + + +   +   @ + { . + + +   + + + + +   ",
"+   @ . + + Q R S .++ + . +   . + +   + . + @   + + + +   +   . ",
". +   . @ # Q R S .+@ + . + +   . $   $ . +   + + +   + +   +   ",
"+ .   + # + Q R S .++ + + @ +   + $ $ $ $ +   + . { +   + . +   ",
"{ . + +   . Q R S .+. # @ + + + { . {   @ + + +   . + + . { + + ",
"  @ + . + + Q R S .+. + # + . +   + . + @ # + $ { . + # @   $ + ",
"@   . + @ + Q ++O .+@ +   . + $ + + . + # + + +   @ + + # + + $ ",
"+ + . + + + @+6.#+$++ + + . + + +   + +   + . { +   + $   $ + + ",
"+ # @ +   @ %+&+*++ . + @ + + . + +   { . @   . +   + $ $ + { . ",
". + # + +   @ + @ + + . + @ + + . {   . +   $ . $ + . { +   . + ",
"+ .   . +   + $   + + . @ + .   + . + . +   + $ $   + . @ + .   "};
