/* XPM */
static char * floor_grass_xpm[] = {
"32 32 7 1",
" 	c #70C725",
".	c #328530",
"+	c #44A318",
"@	c #58AC14",
"#	c #94FF30",
"$	c #3A9311",
"%	c #3D9815",
" .+ ++@#@+ . +.+ .+ ++@ @+ . +.+",
" +++$+#++++ ++++ +.++++ +++ .++.",
"++ @+$ ++.% ++%.++.+#+.++++ +++.",
".++ %+++ @.++ #+.++#+++@+ @+@+ +",
"++$ $ +$+ .+$+.#+.+ + +.++ +++@ ",
"+ @+%.+++ +++++ +.++.@.@++ .+++ ",
"++ +.+@#++++ + .+ @.++++.+++.+ .",
".$ $.+#+++ ++ + .+ .@#+.++@+.++ ",
"+$$$$+ +.%+ +.+ +. +#++.+.+++@+ ",
"%.% @+++ .++.%++%.++ .++++.#@+++",
" +.+@ +$%.+#@ $+ @+.++. @+.+#+.+",
"++.+ +++ @++#++$@ .+@+.+ +@+ .+$",
"+#++ +.%+ +$ $++++.+++++ ++++.++",
"++#%.@ .+ +$$+%.+ @+ @ +++.+@++.",
".% .+ $.$+.%+ .+.+ ++ @+@++.+@++",
"+.+.+ +$$ +.@+.#+. .+ +$ ++.@+. ",
" .+ ++@ @+ . +.+#.+ ++@#@+ . +.+",
" +.++++ +++ .++. +++$+#++++ ++++",
"++.+ +.++++ +++.++ @+$ ++.% ++%.",
".++ +++@+#@+@+ +.++ %+++ @.++ .+",
"+.+ + +.++#+++@ ++$ $ +$+ .+$+. ",
"+.++.@.@++ .+++ + @+%.+++ +++++ ",
"+ @.++++.+++.+ .++ +.+@ ++++ + .",
".+ .@#+.++@+.++ .$ $.+ +++ ++ + ",
"+. +#++.+.+++@+ +$$$$+ +.%+ +.+ ",
"%.++ .++++.#@+++%.% @+++ .++.%++",
" @+.++. @+.+#+.+ +.+@#+$%.+#@ $+",
"@ .+@+.+ +@+ .+$++.+#+++ @++#++$",
"++.+++++ ++++.+++ ++ +.%+ +$ $++",
"+#@+ @ +++.+@++.++ %.@ .+ +$$+%.",
".+#++ @+@++.+@++.% .+ $.$+.%+ .+",
"+. .+ +$ ++.@+. +.+.+ +$$ +.@+. "};
