/* XPM */
static char * Devil_Fruit_xpm[] = {
"32 32 15 1",
" 	c #70C725",
".	c #328530",
"+	c #44A318",
"@	c #58AC14",
"#	c #94FF30",
"$	c #3A9311",
"%	c #000000",
"&	c #734100",
"*	c #FFE38C",
"=	c #3D9815",
"-	c #FFAA00",
";	c #DEAE31",
">	c #CE59DE",
",	c #BD20B5",
"'	c #E792FF",
" .+ ++@#@+ . +.+ .+ ++@ @+ . +.+",
" +++$+#+++%%%+++ +.+%%%%%++ .++.",
"++ @+$ ++%&*%+=.++%&*****%+ +++.",
".++ =+++ %*%+ %%%&**-%%%-*%+@+ +",
"++$ $ +$+%*-%&****-%%&-%%-%+++@ ",
"+ @+=.+++ &***-%%-%%%-%;%-%.+++ ",
"++ +.+@#+++%%%%;%-%;%-&%&-%+.+ .",
".$ $.+#+++ ++ %%&-%%;%---%@+.++ ",
"+$$$$+ +.=+ %%>%--%,%%%%%.+++@+ ",
"=.= @+++ .%%','%-&',>,%%++.#@+++",
" +.+@ +$=%,>>''>%%>,',>>%+.+#+.+",
"++.+ +++%,'''>''>,,'>,>,,%@+ .+$",
"+#++ +.=%''>>'>''''>,>,>>%+++.++",
"++#=.@ %,'>'>'>'>>,,>'>>,,%+@++.",
".= .+ $%>'>''>''>>>>''>>>>%.+@++",
"+.+.+ %>>''>>''>''''>''>,,,%@+. ",
" .+ ++%>'>''''>''>>''>>>>>,% +.+",
" +.+++%,''>>>>''>''>'''>,,,%++++",
"++.+ +%','''''''>'>>'>>,>>,%++=.",
".++ ++%>,>'>>>'>>'''>',>>,,%+ .+",
"+.+ + %>,>,'''>>'>>>'>,>,,,%$+. ",
"+.++.@%,>,'',''>>>>'>>,>>,,%+++ ",
"+ @.+++%>,>,'>'>'>>>,,>,,,%+ + .",
".+ .@#+%>,>,>>,>>,>>>>,>,,%++ + ",
"+. +#++.%,>>,,>>,>>,,>>,,%+ +.+ ",
"=.++ .++%,,>>>>,>>,>>,,,,%++.=++",
" @+.++.%%%,,,,,>>>,,,,,,%%%#@ $+",
"@ .+@+%%%%%%,,,,>,>,,,%%%%%%#++$",
"++.+++%%%%%%%%,,,,,,%%%%%%%% $++",
"+#@+ @ %%%%%%%%%%%%%%%%%%%%$$+=.",
".+#++ @+@+%%%%%%%%%%%%%%$+.=+ .+",
"+. .+ +$ ++.@+. +.+.+ +$$ +.@+. "};
