/* XPM */
static char * luffy_front_xpm[] = {
"32 32 410 2",
"  	c #70C725",
". 	c #328530",
"+ 	c #44A318",
"@ 	c #58AC14",
"# 	c #94FF30",
"$ 	c #3A9311",
"% 	c #3D9815",
"& 	c #73C725",
"* 	c #75A719",
"= 	c #CEB621",
"- 	c #DCB822",
"; 	c #DBB724",
"> 	c #DBB822",
", 	c #D4B12A",
"' 	c #AA9839",
") 	c #9AE735",
"! 	c #47A31A",
"~ 	c #4B8533",
"{ 	c #97A029",
"] 	c #DFBA27",
"^ 	c #FCDA5D",
"/ 	c #FFE165",
"( 	c #FBDA5B",
"_ 	c #F3D04E",
": 	c #F0CD48",
"< 	c #DFB81F",
"[ 	c #B5973A",
"} 	c #8C9538",
"| 	c #639F25",
"1 	c #89B233",
"2 	c #9C8A41",
"3 	c #B4963B",
"4 	c #D7AD24",
"5 	c #C28B4E",
"6 	c #D5733E",
"7 	c #CB7A48",
"8 	c #B57D52",
"9 	c #BC6C3F",
"0 	c #D05F23",
"a 	c #B36F45",
"b 	c #815E3F",
"c 	c #6D573B",
"d 	c #5D832E",
"e 	c #86A835",
"f 	c #947143",
"g 	c #9E4940",
"h 	c #BA362B",
"i 	c #9E5148",
"j 	c #97554D",
"k 	c #794B43",
"l 	c #533E35",
"m 	c #4D3830",
"n 	c #4C3830",
"o 	c #553B33",
"p 	c #854A43",
"q 	c #6D423A",
"r 	c #455E31",
"s 	c #599B22",
"t 	c #499622",
"u 	c #45A219",
"v 	c #4E8629",
"w 	c #575A35",
"x 	c #533C35",
"y 	c #41312A",
"z 	c #302822",
"A 	c #312520",
"B 	c #2C221D",
"C 	c #2E231E",
"D 	c #603530",
"E 	c #915348",
"F 	c #9B624F",
"G 	c #382018",
"H 	c #000000",
"I 	c #241914",
"J 	c #372721",
"K 	c #33301F",
"L 	c #2B6A0E",
"M 	c #409B16",
"N 	c #91F731",
"O 	c #556533",
"P 	c #5A4339",
"Q 	c #402F28",
"R 	c #271411",
"S 	c #351B17",
"T 	c #171517",
"U 	c #484448",
"V 	c #AD7160",
"W 	c #8E5947",
"X 	c #915B4A",
"Y 	c #CC826A",
"Z 	c #C07C67",
"` 	c #775E5B",
" .	c #453131",
"..	c #1E0705",
"+.	c #0F0907",
"@.	c #130B08",
"#.	c #252014",
"$.	c #515B30",
"%.	c #58A11D",
"&.	c #6FC326",
"*.	c #4F832A",
"=.	c #574F38",
"-.	c #3A2B25",
";.	c #6A3732",
">.	c #965148",
",.	c #685E5E",
"'.	c #CED1D9",
").	c #A58F91",
"!.	c #B26B56",
"~.	c #D1856C",
"{.	c #BE7761",
"].	c #986962",
"^.	c #CFB0A8",
"/.	c #CF967E",
"(.	c #875943",
"_.	c #405B27",
":.	c #41642F",
"<.	c #337E11",
"[.	c #31842F",
"}.	c #6EBE28",
"|.	c #347C2F",
"1.	c #3F7C18",
"2.	c #60372C",
"3.	c #A56F5F",
"4.	c #F1D2AB",
"5.	c #E8B78B",
"6.	c #EDBF8E",
"7.	c #CDAC84",
"8.	c #9E7159",
"9.	c #E1B192",
"0.	c #F6E5DD",
"a.	c #DCA997",
"b.	c #B16A56",
"c.	c #778339",
"d.	c #469E1D",
"e.	c #79C92E",
"f.	c #3F3521",
"g.	c #884C43",
"h.	c #C48964",
"i.	c #C5A8A2",
"j.	c #BAB3BF",
"k.	c #D0C5CB",
"l.	c #DFD2D1",
"m.	c #996A66",
"n.	c #5D3A30",
"o.	c #457825",
"p.	c #347E30",
"q.	c #669E2E",
"r.	c #56732F",
"s.	c #6C643A",
"t.	c #A26754",
"u.	c #C18A64",
"v.	c #553C29",
"w.	c #40322D",
"x.	c #68443B",
"y.	c #96584A",
"z.	c #A66051",
"A.	c #6F4036",
"B.	c #301814",
"C.	c #7B433C",
"D.	c #C4A17A",
"E.	c #AC9A6F",
"F.	c #488126",
"G.	c #44A219",
"H.	c #417D33",
"I.	c #736B3F",
"J.	c #92584C",
"K.	c #9C644E",
"L.	c #9B684D",
"M.	c #95604A",
"N.	c #765142",
"O.	c #6E453C",
"P.	c #BC2F23",
"Q.	c #D41D0C",
"R.	c #CB5846",
"S.	c #C86D58",
"T.	c #C3291B",
"U.	c #531A15",
"V.	c #503931",
"W.	c #8E574C",
"X.	c #C58766",
"Y.	c #C58F66",
"Z.	c #7C6145",
"`.	c #665A3B",
" +	c #4E9125",
".+	c #44A119",
"++	c #56A01B",
"@+	c #6D5F3E",
"#+	c #DC9F72",
"$+	c #A37657",
"%+	c #5E982C",
"&+	c #508924",
"*+	c #8D5545",
"=+	c #BA4840",
"-+	c #DA5149",
";+	c #E4564E",
">+	c #CA4840",
",+	c #B83E35",
"'+	c #D6534B",
")+	c #8F4E46",
"!+	c #3D261F",
"~+	c #436A1F",
"{+	c #5F972D",
"]+	c #7E8043",
"^+	c #BF8964",
"/+	c #C58464",
"(+	c #785544",
"_+	c #488D24",
":+	c #469121",
"<+	c #827746",
"[+	c #D2986C",
"}+	c #9C7154",
"|+	c #5C7B30",
"1+	c #449E1B",
"2+	c #368814",
"3+	c #543112",
"4+	c #C8261A",
"5+	c #EA655D",
"6+	c #F0756D",
"7+	c #E55A52",
"8+	c #DE453C",
"9+	c #EA6A62",
"0+	c #CE3A31",
"a+	c #691B0D",
"b+	c #5BA31D",
"c+	c #448A20",
"d+	c #8F775A",
"e+	c #EBC894",
"f+	c #8B7457",
"g+	c #39732F",
"h+	c #468D22",
"i+	c #7B5B44",
"j+	c #CF8A6B",
"k+	c #C67D66",
"l+	c #9F6554",
"m+	c #7C9E3B",
"n+	c #2C772A",
"o+	c #4F2E01",
"p+	c #C82316",
"q+	c #ED6E66",
"r+	c #DD453C",
"s+	c #EC6C64",
"t+	c #DC4E46",
"u+	c #954B41",
"v+	c #63902E",
"w+	c #65952E",
"x+	c #837F41",
"y+	c #A98163",
"z+	c #EBC390",
"A+	c #8A7154",
"B+	c #3A7330",
"C+	c #839F3F",
"D+	c #D7A375",
"E+	c #F6CC96",
"F+	c #ECC594",
"G+	c #D79C7A",
"H+	c #9C954D",
"I+	c #63B120",
"J+	c #25481F",
"K+	c #663B2B",
"L+	c #C9291D",
"M+	c #DF4D44",
"N+	c #CD3D33",
"O+	c #89372E",
"P+	c #68483D",
"Q+	c #B0795D",
"R+	c #E39E75",
"S+	c #D28D6C",
"T+	c #7D5D45",
"U+	c #3C7532",
"V+	c #68942D",
"W+	c #AF8761",
"X+	c #E7C592",
"Y+	c #CD9774",
"Z+	c #849741",
"`+	c #388A13",
" @	c #535525",
".@	c #9A4D45",
"+@	c #C23026",
"@@	c #DA5F57",
"#@	c #E16F66",
"$@	c #D7574E",
"%@	c #D0443A",
"&@	c #E06B63",
"*@	c #DE6961",
"=@	c #CC3A32",
"-@	c #882A24",
";@	c #B09872",
">@	c #F3D19B",
",@	c #F2C895",
"'@	c #C18368",
")@	c #726340",
"!@	c #69B12A",
"~@	c #429E18",
"{@	c #3C6A2F",
"]@	c #497F28",
"^@	c #46981F",
"/@	c #65B420",
"(@	c #0C2B04",
"_@	c #373033",
":@	c #6F6C99",
"<@	c #7F7CB1",
"[@	c #6E6EA9",
"}@	c #5156A1",
"|@	c #4C5095",
"1@	c #363141",
"2@	c #372D24",
"3@	c #1E1914",
"4@	c #3D6C16",
"5@	c #7C7F3F",
"6@	c #A67757",
"7@	c #5F4F3B",
"8@	c #408E1D",
"9@	c #3C9314",
"0@	c #273E0F",
"a@	c #564346",
"b@	c #8E8BCA",
"c@	c #8085DC",
"d@	c #4B56A7",
"e@	c #1C2F50",
"f@	c #29284F",
"g@	c #4E3C46",
"h@	c #342626",
"i@	c #100905",
"j@	c #2F750E",
"k@	c #45A11A",
"l@	c #6DBD28",
"m@	c #58A41B",
"n@	c #338430",
"o@	c #419C16",
"p@	c #274931",
"q@	c #8686C8",
"r@	c #7D74A3",
"s@	c #507919",
"t@	c #3B8F14",
"u@	c #1E2F53",
"v@	c #4E5CBF",
"w@	c #594C74",
"x@	c #4B6618",
"y@	c #378712",
"z@	c #284930",
"A@	c #7D75A5",
"B@	c #464A04",
"C@	c #3E6863",
"D@	c #4758B4",
"E@	c #5160C6",
"F@	c #584C72",
"G@	c #44732B",
"H@	c #3C9214",
"I@	c #1B3249",
"J@	c #4E5DBE",
"K@	c #8488DE",
"L@	c #747BD8",
"M@	c #3A489C",
"N@	c #252E68",
"O@	c #4B59BA",
"P@	c #535EB9",
"Q@	c #54566A",
"R@	c #4B8E1A",
"S@	c #439315",
"T@	c #525056",
"U@	c #949CC7",
"V@	c #C0C5E7",
"W@	c #B3BAE1",
"X@	c #7D82A7",
"Y@	c #3C471C",
"Z@	c #569619",
"`@	c #477815",
" #	c #37812F",
".#	c #3E9315",
"+#	c #29421E",
"@#	c #434649",
"##	c #5A595A",
"$#	c #6E6160",
"%#	c #6B5652",
"&#	c #536131",
"*#	c #3C9114",
"=#	c #59A819",
"-#	c #527A2E",
";#	c #585137",
">#	c #B57B5F",
",#	c #B47A5E",
"'#	c #505A37",
")#	c #3E9617",
"!#	c #505A36",
"~#	c #CDAB7F",
"{#	c #546831",
"]#	c #348330",
"^#	c #43A117",
"/#	c #6AB02B",
"(#	c #8B7B59",
"_#	c #C79271",
":#	c #EBAF81",
"<#	c #C4956D",
"[#	c #459520",
"}#	c #757B3D",
"|#	c #B78860",
"1#	c #B69C75",
"2#	c #EFE1CB",
"3#	c #FFDEBB",
"4#	c #C79C71",
"5#	c #607834",
"6#	c #427433",
"7#	c #5F543A",
"8#	c #6E5D3F",
"9#	c #5B5139",
"0#	c #6D685A",
"a#	c #746353",
"b#	c #627D34",
"c#	c #469F1B",
"  . +   + + @ # @ +   .   + . +   . +   + + @   @ +   .   + . + ",
"  + + + $ + # + + + +   + + + +   + . + + + +   + + +   . + + . ",
"+ +   @ + $   + + . % & * = - ; > > , ' ) ! . + + + +   + + + . ",
". + +   % + + +   @ ~ { ] ^ / / ( _ : < [ } | @ +   @ + @ +   + ",
"+ + $   $   + $ + 1 2 3 4 5 6 7 8 9 0 a b c d . + +   + + + @   ",
"+   @ + % . + + + e f g h i j k l m n o p q r s t u   . + + +   ",
"+ +   + . + @ # v w x y z A B C D E F G H H I J K L M + . +   . ",
". $   $ . + N O P Q R S T U V W X Y Z `  ...+.@.#.$.%.+ . + +   ",
"+ $ $ $ $ + &.*.=.-.;.>.,.'.).!.~.{.].^./.(._.:.<.[.+ + + @ +   ",
"% . %   @ + + + }.|.1.2.3.4.5.6.7.8.9.0.a.b.c.+ + + . # @ + + + ",
"  + . + @   + $ % . d.e.f.g.h.i.j.k.l.m.n.o.p.  @ + . + # + . + ",
"+ + . +   + + + q.r.s.t.u.v.w.x.y.z.A.B.C.D.E.F.  + @ +   . + $ ",
"+ # + +   G.H.I.J.K.L.M.N.O.P.Q.R.S.T.U.V.W.X.Y.Z.`. +.++ . + + ",
"+ + # % . ++@+#+$+%++ &+*+=+-+;+>+,+'+)+!+~+{+]+^+/+(+_+@ + + . ",
". %   . :+<+[+}+|+1+. 2+3+4+5+6+7+8+9+0+a+b+@ c+d+e+f+g++ @ + + ",
"+ . + . h+i+j+k+l+m++ n+o+p+;+q+7+r+s+t+u+v+w+x+y+z+A+B+@ + .   ",
"  . +   C+D+E+F+G+H+I+J+K+L+;+q+7+r+s+M+N+O+P+Q+R+S+T+U+  + . + ",
"  + . + V+W+X+Y+Z++ `+ @.@+@@@#@$@%@&@*@=@-@;@>@,@'@)@!@+ + + + ",
"+ + . +   ~@{@]@^@+ + /@(@_@:@<@[@}@|@1@2@3@4@5@6@7@8@  + + % . ",
". + +   + + + @ + # @ 9@0@a@b@c@d@e@f@g@h@i@j@k@l@m@n@+ +   . + ",
"+ . +   +   + . + + # + o@p@q@r@s@t@u@v@w@x@y@$ +   . + $ + .   ",
"+ . + + . @ . @ + +   . M z@q@A@B@C@D@E@F@G@+ + +   + + + + +   ",
"+   @ . + + + + . + + H@I@J@K@L@M@N@O@P@Q@R@@   + + + +   +   . ",
". +   . @ # + . + + @ S@T@U@V@W@X@Y@Z@`@ #+   + + +   + +   +   ",
"+ .   + # + + . + . + .#+#@###$#%#&#*#$ $ +   + . % +   + . +   ",
"% . + +   . + + + + . # =#-#;#>#,#'#)#  @ + + +   . + + . % + + ",
"  @ + . + + .   @ + . + # k@!#~#~#{#]#+ @ # + $ % . + # @   $ + ",
"@   . + @ + . +   + @ ^#/#(#_#:#<#{#]#+ # + + +   @ + + # + + $ ",
"+ + . + + + + +   + [#}#|#1#2#3#4#5#k@+   + . % +   + $   $ + + ",
"+ # @ +   @   + + + 6#7#8#9#0#a#b#c#  % . @   . +   + $ $ + % . ",
". + # + +   @ + @ + + . + @ + + . %   . +   $ . $ + . % +   . + ",
"+ .   . +   + $   + + . @ + .   + . + . +   + $ $   + . @ + .   "};
