/* XPM */
static char * luffy_left_xpm[] = {
"32 32 298 2",
"  	c #70C725",
". 	c #328530",
"+ 	c #44A318",
"@ 	c #58AC14",
"# 	c #94FF30",
"$ 	c #3A9311",
"% 	c #3D9815",
"& 	c #3E8631",
"* 	c #879735",
"= 	c #8F9735",
"- 	c #BCB91B",
"; 	c #C7D31D",
"> 	c #B9AE0F",
", 	c #B0A31F",
"' 	c #54A417",
") 	c #44A219",
"! 	c #428C1B",
"~ 	c #5A9F22",
"{ 	c #79BA2D",
"] 	c #6E523E",
"^ 	c #AD6148",
"/ 	c #D6AE2F",
"( 	c #FBD95E",
"_ 	c #FEDD61",
": 	c #FEDC61",
"< 	c #F5D359",
"[ 	c #B0993F",
"} 	c #649F24",
"| 	c #71C626",
"1 	c #45A11A",
"2 	c #528429",
"3 	c #70622D",
"4 	c #896E3C",
"5 	c #C59139",
"6 	c #BE533D",
"7 	c #C36335",
"8 	c #D2A356",
"9 	c #EBC645",
"0 	c #ECC73F",
"a 	c #DCB419",
"b 	c #C3A131",
"c 	c #C5A42E",
"d 	c #8A9932",
"e 	c #3E8531",
"f 	c #58AB14",
"g 	c #88EB2C",
"h 	c #1F320F",
"i 	c #241911",
"j 	c #6B5236",
"k 	c #9F833C",
"l 	c #D0A01D",
"m 	c #D55819",
"n 	c #D45A18",
"o 	c #B78938",
"p 	c #D5AB23",
"q 	c #D3AC23",
"r 	c #AD913E",
"s 	c #9A8740",
"t 	c #51A11E",
"u 	c #45A01A",
"v 	c #77BA32",
"w 	c #18120C",
"x 	c #3A2A23",
"y 	c #2B1714",
"z 	c #824C44",
"A 	c #915A4A",
"B 	c #523A2A",
"C 	c #9F8313",
"D 	c #C4A02E",
"E 	c #D5871B",
"F 	c #8F5545",
"G 	c #A0714A",
"H 	c #866C3F",
"I 	c #5A4D38",
"J 	c #58A619",
"K 	c #6EC027",
"L 	c #3E9616",
"M 	c #092608",
"N 	c #41371D",
"O 	c #C37C65",
"P 	c #C57E68",
"Q 	c #6E5651",
"R 	c #36221E",
"S 	c #3B2F15",
"T 	c #6E5633",
"U 	c #957C3F",
"V 	c #6D513B",
"W 	c #41321F",
"X 	c #564F35",
"Y 	c #90F631",
"Z 	c #429F17",
"` 	c #54981A",
" .	c #518538",
"..	c #CF946A",
"+.	c #986A66",
"@.	c #D8D7DD",
"#.	c #CC937A",
"$.	c #A57451",
"%.	c #4C3B29",
"&.	c #B29972",
"*.	c #87723C",
"=.	c #8A733E",
"-.	c #85723D",
";.	c #8AAE35",
">.	c #3C8531",
",.	c #4A951E",
"'.	c #9F7556",
").	c #F2CD99",
"!.	c #F0D09F",
"~.	c #EDBC9A",
"{.	c #C18269",
"].	c #EDC794",
"^.	c #785C49",
"/.	c #A56E5A",
"(.	c #3A331B",
"_.	c #232C10",
":.	c #423D1B",
"<.	c #625F35",
"[.	c #489E1C",
"}.	c #5CAA18",
"|.	c #87824F",
"1.	c #B7A7B0",
"2.	c #E5D0CC",
"3.	c #B37E6D",
"4.	c #9C604F",
"5.	c #3E2E20",
"6.	c #3A750A",
"7.	c #6EC424",
"8.	c #46A219",
"9.	c #588C23",
"0.	c #80B634",
"a.	c #524428",
"b.	c #D39C6F",
"c.	c #E3C28F",
"d.	c #6D7343",
"e.	c #469E1C",
"f.	c #3B9113",
"g.	c #447C22",
"h.	c #463B25",
"i.	c #A15850",
"j.	c #C47B65",
"k.	c #68523D",
"l.	c #5EA421",
"m.	c #57AB14",
"n.	c #41921B",
"o.	c #625039",
"p.	c #9D5D50",
"q.	c #DB9970",
"r.	c #C98268",
"s.	c #67483C",
"t.	c #18170B",
"u.	c #3B6D0F",
"v.	c #419D17",
"w.	c #6C4A38",
"x.	c #D3463D",
"y.	c #B16154",
"z.	c #E2A174",
"A.	c #6E503F",
"B.	c #060E0B",
"C.	c #160807",
"D.	c #542B27",
"E.	c #1C260D",
"F.	c #419C17",
"G.	c #654E3C",
"H.	c #BC6D5F",
"I.	c #E9C091",
"J.	c #F1CA95",
"K.	c #7D5946",
"L.	c #AC1F13",
"M.	c #3F0B08",
"N.	c #563D27",
"O.	c #61A920",
"P.	c #43A118",
"Q.	c #4B9622",
"R.	c #6C9330",
"S.	c #BB8561",
"T.	c #F5CA96",
"U.	c #E3A578",
"V.	c #845848",
"W.	c #E56C64",
"X.	c #D12E23",
"Y.	c #463204",
"Z.	c #4F9E20",
"`.	c #976951",
" +	c #E2BB8D",
".+	c #F6CA95",
"++	c #D79471",
"@+	c #93614F",
"#+	c #654336",
"$+	c #8D4036",
"%+	c #7E170F",
"&+	c #2A2E03",
"*+	c #6CC023",
"=+	c #9C724C",
"-+	c #CA886D",
";+	c #F0CA97",
">+	c #E9C594",
",+	c #5A4F56",
"'+	c #9091DA",
")+	c #5764C6",
"!+	c #183041",
"~+	c #409B16",
"{+	c #43A117",
"]+	c #388114",
"^+	c #6A5230",
"/+	c #67302F",
"(+	c #642F2E",
"_+	c #554454",
":+	c #9293DD",
"<+	c #5A67C9",
"[+	c #463E48",
"}+	c #2F6D10",
"|+	c #389010",
"1+	c #5A6D32",
"2+	c #253519",
"3+	c #59453D",
"4+	c #83787E",
"5+	c #A7A7E2",
"6+	c #8089D6",
"7+	c #6772C4",
"8+	c #364943",
"9+	c #55A614",
"0+	c #44A218",
"a+	c #399013",
"b+	c #2E7D2D",
"c+	c #409A16",
"d+	c #46A21A",
"e+	c #57784B",
"f+	c #B4B3B1",
"g+	c #D2BEBB",
"h+	c #BCB8B6",
"i+	c #888C94",
"j+	c #47443A",
"k+	c #4B8618",
"l+	c #2B6D0C",
"m+	c #021003",
"n+	c #3C2D26",
"o+	c #444228",
"p+	c #6DC025",
"q+	c #419917",
"r+	c #565528",
"s+	c #CD956A",
"t+	c #644630",
"u+	c #141105",
"v+	c #263D0D",
"w+	c #583D34",
"x+	c #96534B",
"y+	c #95534B",
"z+	c #615738",
"A+	c #429E17",
"B+	c #4E502A",
"C+	c #E7BA88",
"D+	c #494625",
"E+	c #368A0F",
"F+	c #102904",
"G+	c #412D26",
"H+	c #6A3734",
"I+	c #494B27",
"J+	c #439D19",
"K+	c #43A218",
"L+	c #47941F",
"M+	c #8B7757",
"N+	c #E3C593",
"O+	c #636438",
"P+	c #62AB22",
"Q+	c #4B4521",
"R+	c #D1956B",
"S+	c #6B5A3E",
"T+	c #43A017",
"U+	c #76CD25",
"V+	c #337F10",
"W+	c #236322",
"X+	c #784939",
"Y+	c #C98B69",
"Z+	c #FAD69F",
"`+	c #F0C08C",
" @	c #65503B",
".@	c #39700E",
"+@	c #63AE1D",
"@@	c #2E730E",
"#@	c #399010",
"$@	c #51582E",
"%@	c #DFC08E",
"&@	c #D49D70",
"*@	c #785841",
"=@	c #F0CD97",
"-@	c #FBDAA2",
";@	c #F2D29C",
">@	c #535431",
",@	c #8EF62E",
"'@	c #2F6D11",
")@	c #455C31",
"!@	c #4E702E",
"~@	c #50702E",
"{@	c #28660B",
"]@	c #5B832C",
"^@	c #4A6E2A",
"/@	c #6DC224",
"  . +   + + @ # @ +   .   + . +   . +   + + @   @ +   .   + . + ",
"  + + + $ + # + + + +   + + + +   + . + + + +   + + +   . + + . ",
"+ +   @ + $   + + . %   + + % . + + . + # + . + + + +   + + + . ",
". + +   % + + +   @ & * = - ; > , ' + # + + + @ +   @ + @ +   + ",
"+ + $   $   ) ! ~ { ] ^ / ( _ : < [ } | +   + . + +   + + + @   ",
"+   @ + % . 1 2 3 4 5 6 7 8 9 0 a b c d e @ . @ + +   . + + +   ",
"+ +   + . + f g h i j k l m n o p q r s t + + + . + + + . +   . ",
". $   $ . u v w x y z A B C D E F G H I J # + . + + @ + . + +   ",
"+ $ $ $ $ + K L M N O P Q R S T U V W X Y + + . + . + + + @ +   ",
"% . %   @ + + Z `  ...+.@.#.$.%.&.*.=.-.;.>.+ + + + . # @ + + + ",
"  + . + @   + $ ,.'.).!.~.{.].^./.(._.:.<.[..   @ + . + # + . + ",
"+ + . +   + + +   }.|.1.2.3.4.5.6.7.. + @ + . +   + @ +   . + $ ",
"+ # + +   + . % +   8.9.0.a.b.c.d.e.. + + + + +   + + + + . + + ",
"+ + # % . @   . +   + f.g.h.i.j.k.l.m.+   @   + + + . + @ + + . ",
". %   . +   $ . $ + . n.o.p.q.r.s.t.u.v.+   @ + @ + + . + @ + + ",
"+ . + . +   + $ $   e.w.x.y.z.A.B.C.D.E.F.  + $   + + . @ + .   ",
"  . +   + + @   @ + K G.H.I.J.K.L.M.N.O.P.+ @ # @ +   .   + . + ",
"  + . + + + +   ) Q.R.S.T.U.V.W.X.Y.F.+ $ + # + + + +   + + + + ",
"+ + . +   + . + Z.`. +.+++@+#+$+%+&+*+@ + $   + + . %   + + % . ",
". + +   + + + @ Z.=+-+;+>+,+'+)+!+~++   % + + +   @ . + +   . + ",
"+ . +   +   + . {+]+^+/+(+_+:+<+[+}+|+  $   + $ +   . + $ + .   ",
"+ . + + . @ . @ + e.1+2+3+4+5+6+7+8+9+0+a+b+c+0++   + + + + +   ",
"+   @ . + + + + . + + d+e+f+g+h+i+j+k+l+m+n+o+p++ + + +   +   . ",
". +   . @ # + . + + @ + . q+r+s+t+u+v+w+x+y+z+e.+ +   + +   +   ",
"+ .   + # + + . + . + + + @ A+B+C+D+E+F+G+H+I+J+. % +   + . +   ",
"% . + +   . + + + + . # @ + K+L+M+N+O+P+Q+R+S+e.  . + + . % + + ",
"  @ + . + + .   @ + . T+U+V+W+X+Y+Z+`+ @.@+@@@#@% . + # @   $ + ",
"@   . + @ + . +   + @ v.$@%@&@*@=@-@;@>@,@+ + +   @ + + # + + $ ",
"+ + . + + + + +   + + Z '@)@!@~@{@]@^@'@/@+ . % +   + $   $ + + ",
"+ # @ +   @   + + + . + @ + + . + +   % . @   . +   + $ $ + % . ",
". + # + +   @ + @ + + . + @ + + . %   . +   $ . $ + . % +   . + ",
"+ .   . +   + $   + + . @ + .   + . + . +   + $ $   + . @ + .   "};
