/* XPM */
static char * luffy_right_xpm[] = {
"32 32 296 2",
"  	c #70C725",
". 	c #328530",
"+ 	c #44A318",
"@ 	c #58AC14",
"# 	c #94FF30",
"$ 	c #3A9311",
"% 	c #3D9815",
"& 	c #99FD2F",
"* 	c #B2AD10",
"= 	c #B7A51D",
"- 	c #B9AE0F",
"; 	c #B5AC16",
"> 	c #A2C13B",
", 	c #879735",
"' 	c #4DA31B",
") 	c #3D9312",
"! 	c #649F24",
"~ 	c #B0993F",
"{ 	c #F5D359",
"] 	c #FEDC61",
"^ 	c #FEDD61",
"/ 	c #FBD95E",
"( 	c #D6AE2F",
"_ 	c #AD6148",
": 	c #73603D",
"< 	c #5D9B25",
"[ 	c #508633",
"} 	c #499B1F",
"| 	c #44A219",
"1 	c #4CA21B",
"2 	c #8A9932",
"3 	c #C5A42E",
"4 	c #C3A131",
"5 	c #DCB419",
"6 	c #ECC73F",
"7 	c #EBC645",
"8 	c #D2A356",
"9 	c #C36335",
"0 	c #BE533D",
"a 	c #C59139",
"b 	c #896E3C",
"c 	c #70622D",
"d 	c #528429",
"e 	c #45A11A",
"f 	c #51A11E",
"g 	c #9D8E3F",
"h 	c #AD913E",
"i 	c #D3AC23",
"j 	c #D5AB23",
"k 	c #B78938",
"l 	c #D45A18",
"m 	c #D55819",
"n 	c #D0A01D",
"o 	c #9F833C",
"p 	c #6B5236",
"q 	c #241911",
"r 	c #1F320F",
"s 	c #2E7A2C",
"t 	c #44A218",
"u 	c #469E1C",
"v 	c #5B5237",
"w 	c #866C3F",
"x 	c #A0714A",
"y 	c #8F5545",
"z 	c #D5871B",
"A 	c #C4A02E",
"B 	c #9F8313",
"C 	c #523A2A",
"D 	c #915A4A",
"E 	c #824C44",
"F 	c #2B1714",
"G 	c #3A2A23",
"H 	c #18120C",
"I 	c #4C7A29",
"J 	c #58A917",
"K 	c #6EC027",
"L 	c #564F35",
"M 	c #41321F",
"N 	c #6D513B",
"O 	c #957C3F",
"P 	c #6E5633",
"Q 	c #3B2F15",
"R 	c #36221E",
"S 	c #6E5651",
"T 	c #C57E68",
"U 	c #C37C65",
"V 	c #41391D",
"W 	c #092608",
"X 	c #3E9616",
"Y 	c #368131",
"Z 	c #4BA21B",
"` 	c #7B9830",
" .	c #84703D",
"..	c #8A733E",
"+.	c #87723C",
"@.	c #B29972",
"#.	c #4C3B29",
"$.	c #A57451",
"%.	c #CC937A",
"&.	c #D8D7DD",
"*.	c #986A66",
"=.	c #CF916A",
"-.	c #5CA127",
";.	c #327C10",
">.	c #429F17",
",.	c #489E1C",
"'.	c #6C7A37",
").	c #44421A",
"!.	c #293511",
"~.	c #382F1B",
"{.	c #A56D5A",
"].	c #785C49",
"^.	c #EDC794",
"/.	c #C18269",
"(.	c #EDBC9A",
"_.	c #F0D09F",
":.	c #F2CD99",
"<.	c #9F7556",
"[.	c #75C22A",
"}.	c #43A117",
"|.	c #256308",
"1.	c #3F3220",
"2.	c #9C604F",
"3.	c #B37E6D",
"4.	c #E5D0CC",
"5.	c #B7A7B0",
"6.	c #87824F",
"7.	c #3B8431",
"8.	c #6D7343",
"9.	c #E3C28F",
"0.	c #D39C6F",
"a.	c #51422A",
"b.	c #67972D",
"c.	c #5E9A26",
"d.	c #46A219",
"e.	c #43A218",
"f.	c #377D16",
"g.	c #684F3D",
"h.	c #C47B65",
"i.	c #A15850",
"j.	c #473D25",
"k.	c #4A8925",
"l.	c #6FC526",
"m.	c #419D17",
"n.	c #3B6D0F",
"o.	c #17140C",
"p.	c #67483C",
"q.	c #C98268",
"r.	c #DB9970",
"s.	c #9D5D50",
"t.	c #625039",
"u.	c #479D1D",
"v.	c #30802E",
"w.	c #223208",
"x.	c #542B27",
"y.	c #160807",
"z.	c #060E0B",
"A.	c #6E503F",
"B.	c #E2A174",
"C.	c #B16154",
"D.	c #D3463D",
"E.	c #6C5037",
"F.	c #31842F",
"G.	c #61A920",
"H.	c #563D27",
"I.	c #3F0B08",
"J.	c #AC1F13",
"K.	c #7D5946",
"L.	c #F1CA95",
"M.	c #E9C091",
"N.	c #BC6D5F",
"O.	c #66533B",
"P.	c #419C17",
"Q.	c #463204",
"R.	c #D12E23",
"S.	c #E56C64",
"T.	c #845848",
"U.	c #E3A578",
"V.	c #F5CA96",
"W.	c #BA8061",
"X.	c #6C9330",
"Y.	c #8BE832",
"Z.	c #2A2E03",
"`.	c #7E170F",
" +	c #8D4036",
".+	c #654336",
"++	c #93614F",
"@+	c #D79471",
"#+	c #F6CA95",
"$+	c #E2BB8D",
"%+	c #986E52",
"&+	c #4F9E20",
"*+	c #6ABE23",
"=+	c #1B3840",
"-+	c #5764C6",
";+	c #9091DA",
">+	c #5A4F56",
",+	c #E9C594",
"'+	c #F0CA97",
")+	c #CA886D",
"!+	c #98614B",
"~+	c #3C730D",
"{+	c #484248",
"]+	c #5A67C9",
"^+	c #9293DD",
"/+	c #554454",
"(+	c #642F2E",
"_+	c #67302F",
":+	c #674630",
"<+	c #388114",
"[+	c #399111",
"}+	c #409A16",
"|+	c #69BB22",
"1+	c #2F7E2D",
"2+	c #429D17",
"3+	c #2F4043",
"4+	c #6772C4",
"5+	c #8089D6",
"6+	c #A7A7E2",
"7+	c #83787E",
"8+	c #59453D",
"9+	c #273C14",
"0+	c #4F5234",
"a+	c #34802F",
"b+	c #424028",
"c+	c #3C2D26",
"d+	c #041602",
"e+	c #1E581D",
"f+	c #2E6D11",
"g+	c #49493A",
"h+	c #888C94",
"i+	c #BCB8B6",
"j+	c #D2BEBB",
"k+	c #B5B4B1",
"l+	c #5D8B45",
"m+	c #358431",
"n+	c #5D4F37",
"o+	c #95534B",
"p+	c #96534B",
"q+	c #583D34",
"r+	c #1B310B",
"s+	c #141205",
"t+	c #644630",
"u+	c #CD956A",
"v+	c #555027",
"w+	c #69BA23",
"x+	c #3A9211",
"y+	c #439D19",
"z+	c #433B28",
"A+	c #6A3734",
"B+	c #412D26",
"C+	c #132E05",
"D+	c #52A112",
"E+	c #4A4A25",
"F+	c #E7BA88",
"G+	c #4B4929",
"H+	c #388E10",
"I+	c #6B5A3E",
"J+	c #D1956B",
"K+	c #525923",
"L+	c #4F9416",
"M+	c #646738",
"N+	c #E3C592",
"O+	c #8B7857",
"P+	c #428A1D",
"Q+	c #328430",
"R+	c #56A813",
"S+	c #2E730E",
"T+	c #1F591D",
"U+	c #2D6A10",
"V+	c #67563B",
"W+	c #F0C08C",
"X+	c #FAD69F",
"Y+	c #C98B69",
"Z+	c #794D39",
"`+	c #317A0F",
" @	c #256723",
".@	c #358211",
"+@	c #56A913",
"@@	c #575C32",
"#@	c #F2D29C",
"$@	c #FBDAA2",
"%@	c #F0CD97",
"&@	c #785841",
"*@	c #D49D70",
"=@	c #DFC08E",
"-@	c #4C502E",
";@	c #8EF62E",
">@	c #2F6D11",
",@	c #455C31",
"'@	c #496D29",
")@	c #28660B",
"!@	c #50702E",
"~@	c #5F8531",
"{@	c #4A6E2A",
"]@	c #6DC224",
"  . +   + + @ # @ +   .   + . +   . +   + + @   @ +   .   + . + ",
"  + + + $ + # + + + +   + + + +   + . + + + +   + + +   . + + . ",
"+ +   @ + $   + + . %   + + % . + + . + # + . + + + +   + + + . ",
". + +   % + + +   @ . + +   & * = - ; > , ' + @ +   @ + @ +   + ",
"+ + $   $   + $ +   . + ) ! ~ { ] ^ / ( _ : < [ } |   + + + @   ",
"+   @ + % . + + +   + 1 2 3 4 5 6 7 8 9 0 a b c d e   . + + +   ",
"+ +   + . + @ # + + + f g h i j k l m n o p q r s t + + . +   . ",
". $   $ . + # + + +   u v w x y z A B C D E F G H I J + . + +   ",
"+ $ $ $ $ +   + . % + K L M N O P Q R S T U V W X Y + + + @ +   ",
"% . %   @ + + +   . Z `  ...+.@.#.$.%.&.*.=.-.;.>.+ . # @ + + + ",
"  + . + @   + $ % . ,.'.).!.~.{.].^./.(._.:.<.[.@ + . + # + . + ",
"+ + . +   + + +   @ + + # + }.|.1.2.3.4.5.6.7.+   + @ +   . + $ ",
"+ # + +   + . % +   + $   $ u 8.9.0.a.b.c.d.+ +   + + + + . + + ",
"+ + # % . @   . +   + $ $ e.f.g.h.i.j.k.l.@   + + + . + @ + + . ",
". %   . +   $ . $ + . % m.n.o.p.q.r.s.t.u.  @ + @ + + . + @ + + ",
"+ . + . +   + $ $   + v.w.x.y.z.A.B.C.D.E.K + $   + + . @ + .   ",
"  . +   + + @   @ +   F.G.H.I.J.K.L.M.N.O.u @ # @ +   .   + . + ",
"  + . + + + +   + + +   . P.Q.R.S.T.U.V.W.X.Y.| + + +   + + + + ",
"+ + . +   + . + + + +   + m.Z.`. +.+++@+#+$+%+&++ . %   + + % . ",
". + +   + + + @ + # @ + @ + *+=+-+;+>+,+'+)+!+&+  @ . + +   . + ",
"+ . +   +   + . + + # + + >.~+{+]+^+/+(+_+:+<+[++   . + $ + .   ",
"+ . + + . @ . @ t }+|+1+t 2+3+4+5+6+7+8+9+0+u + +   + + + + +   ",
"+   @ . + + + + a+b+c+d+e+f+g+h+i+j+k+l+m++ @   + + + +   +   . ",
". +   . @ # + . u n+o+p+q+r+s+t+u+v+w+x+. +   + + +   + +   +   ",
"+ .   + # + + . y+z+A+B+C+D+E+F+G+H+$ $ $ +   + . % +   + . +   ",
"% . + +   . + + u I+J+K+L+M+N+O+P+Q+%   @ + + +   . + + . % + + ",
"  @ + . + + .   R+S+T+U+V+W+X+Y+Z+`+ @.@+@# + $ % . + # @   $ + ",
"@   . + @ + . +   + @ m.@@#@$@%@&@*@=@-@;@+ + +   @ + + # + + $ ",
"+ + . + + + + +   + + >.>@,@'@)@!@~@{@>@]@+ . % +   + $   $ + + ",
"+ # @ +   @   + + + . + @ + + . + +   % . @   . +   + $ $ + % . ",
". + # + +   @ + @ + + . + @ + + . %   . +   $ . $ + . % +   . + ",
"+ .   . +   + $   + + . @ + .   + . + . +   + $ $   + . @ + .   "};
