/* XPM */
static char * luffy_back_xpm[] = {
"32 32 367 2",
"  	c #70C725",
". 	c #328530",
"+ 	c #44A318",
"@ 	c #58AC14",
"# 	c #94FF30",
"$ 	c #3A9311",
"% 	c #3D9815",
"& 	c #72C725",
"* 	c #BBE125",
"= 	c #BBAE11",
"- 	c #B7A51D",
"; 	c #B9AE0F",
"> 	c #C4D220",
", 	c #959A30",
"' 	c #619D26",
") 	c #47A21A",
"! 	c #6E961C",
"~ 	c #CEB114",
"{ 	c #DEB50F",
"] 	c #EECA46",
"^ 	c #FAD85B",
"/ 	c #FBD95C",
"( 	c #FEDD61",
"_ 	c #FEDC61",
": 	c #F9D75C",
"< 	c #CDAF49",
"[ 	c #8B9830",
"} 	c #478632",
"| 	c #629F25",
"1 	c #8D9338",
"2 	c #AC913F",
"3 	c #D7B01E",
"4 	c #DFB50F",
"5 	c #DDB408",
"6 	c #E6C033",
"7 	c #F0CC4A",
"8 	c #EDC843",
"9 	c #ECC742",
"0 	c #E7C030",
"a 	c #C4A22F",
"b 	c #9C8F3F",
"c 	c #7E9931",
"d 	c #4CA21B",
"e 	c #70992C",
"f 	c #9F8742",
"g 	c #D7B01D",
"h 	c #DEB510",
"i 	c #DFB617",
"j 	c #DFB718",
"k 	c #E3BB27",
"l 	c #F5D254",
"m 	c #DEB612",
"n 	c #DBB316",
"o 	c #C5A22E",
"p 	c #92873E",
"q 	c #50A11D",
"r 	c #499223",
"s 	c #5C7C33",
"t 	c #6D4E3E",
"u 	c #AA7D46",
"v 	c #D8AF1F",
"w 	c #DFB70D",
"x 	c #DEB710",
"y 	c #DEB60D",
"z 	c #DEB607",
"A 	c #DEB606",
"B 	c #DDB501",
"C 	c #DEB60E",
"D 	c #CDAB28",
"E 	c #B58F41",
"F 	c #906546",
"G 	c #564E37",
"H 	c #4D7D2C",
"I 	c #58A718",
"J 	c #44A219",
"K 	c #4C6236",
"L 	c #846E3D",
"M 	c #A18941",
"N 	c #967D40",
"O 	c #78553F",
"P 	c #A5624B",
"Q 	c #CA5130",
"R 	c #D44515",
"S 	c #DD6046",
"T 	c #E97A65",
"U 	c #E87762",
"V 	c #D85536",
"W 	c #CF3D19",
"X 	c #A5412F",
"Y 	c #81673E",
"Z 	c #A48A3F",
"` 	c #9B8340",
" .	c #696138",
"..	c #499024",
"+.	c #68A62D",
"@.	c #676632",
"#.	c #8D7837",
"$.	c #A68D42",
"%.	c #A78B43",
"&.	c #A5784A",
"*.	c #A5754C",
"=.	c #B68445",
"-.	c #C18D3E",
";.	c #C08C3D",
">.	c #BF8B3C",
",.	c #C08D3E",
"'.	c #AE8833",
").	c #B4942E",
"!.	c #C7A531",
"~.	c #BD9C2E",
"{.	c #827130",
"].	c #566834",
"^.	c #8CED32",
"/.	c #31822F",
"(.	c #3E8114",
"_.	c #4F5422",
":.	c #6D5838",
"<.	c #98813F",
"[.	c #7A643B",
"}.	c #B39126",
"|.	c #DBB20D",
"1.	c #D9B10C",
"2.	c #DEB726",
"3.	c #F1CF53",
"4.	c #E0BA2F",
"5.	c #EDC94A",
"6.	c #C1A543",
"7.	c #5E4823",
"8.	c #5D4833",
"9.	c #21380D",
"0.	c #2D7A2B",
"a.	c #3F9417",
"b.	c #384B1B",
"c.	c #2A1D1D",
"d.	c #0D0809",
"e.	c #000000",
"f.	c #3F171F",
"g.	c #693334",
"h.	c #602D2F",
"i.	c #000004",
"j.	c #000012",
"k.	c #7C433F",
"l.	c #915149",
"m.	c #484629",
"n.	c #2F6E11",
"o.	c #54A413",
"p.	c #73C728",
"q.	c #508E26",
"r.	c #8F815A",
"s.	c #E2C08F",
"t.	c #C3896C",
"u.	c #7B5144",
"v.	c #533B33",
"w.	c #654239",
"x.	c #72473E",
"y.	c #6E453D",
"z.	c #5D3F37",
"A.	c #563D35",
"B.	c #A36A56",
"C.	c #965E4D",
"D.	c #42601B",
"E.	c #68B922",
"F.	c #44A218",
"G.	c #57A916",
"H.	c #69AC2B",
"I.	c #62763A",
"J.	c #9A915F",
"K.	c #CD9B73",
"L.	c #DD9C71",
"M.	c #C38963",
"N.	c #A56954",
"O.	c #604136",
"P.	c #6B453D",
"Q.	c #C45A52",
"R.	c #E34E46",
"S.	c #D71E0B",
"T.	c #DA3126",
"U.	c #E25C54",
"V.	c #9C5249",
"W.	c #4E5B27",
"X.	c #5CA61D",
"Y.	c #479221",
"Z.	c #827F44",
"`.	c #D49D70",
" +	c #E8C08F",
".+	c #B19770",
"++	c #725842",
"@+	c #55572F",
"#+	c #358711",
"$+	c #388A13",
"%+	c #3B4A0B",
"&+	c #B12C23",
"*+	c #D42A1D",
"=+	c #D6200D",
"-+	c #D62110",
";+	c #D6210F",
">+	c #D12414",
",+	c #8F4439",
"'+	c #6EA832",
")+	c #42981D",
"!+	c #6D7041",
"~+	c #BB8C66",
"{+	c #EFBD89",
"]+	c #D8BB89",
"^+	c #6C7342",
"/+	c #32820E",
"(+	c #60A61D",
"_+	c #8B6040",
":+	c #C53228",
"<+	c #D71F0D",
"[+	c #D12415",
"}+	c #813F33",
"|+	c #65A82E",
"1+	c #6FC426",
"2+	c #4C6735",
"3+	c #B0875C",
"4+	c #D7966F",
"5+	c #DC9976",
"6+	c #CB9673",
"7+	c #484422",
"8+	c #66B521",
"9+	c #3B7D32",
"0+	c #5D7B30",
"a+	c #35260E",
"b+	c #B91A0A",
"c+	c #D82110",
"d+	c #D52211",
"e+	c #C32C1E",
"f+	c #87572D",
"g+	c #559127",
"h+	c #6FC326",
"i+	c #566633",
"j+	c #C28A65",
"k+	c #C08662",
"l+	c #5B382D",
"m+	c #364D1B",
"n+	c #429C18",
"o+	c #4E8B28",
"p+	c #504032",
"q+	c #2C1B17",
"r+	c #6F4139",
"s+	c #C23025",
"t+	c #D8200D",
"u+	c #D7210F",
"v+	c #96392F",
"w+	c #77BE35",
"x+	c #4B9223",
"y+	c #786645",
"z+	c #8F5E4E",
"A+	c #867A47",
"B+	c #4E9027",
"C+	c #348430",
"D+	c #4E8A28",
"E+	c #4F3E32",
"F+	c #261310",
"G+	c #5E2F2A",
"H+	c #7B1E18",
"I+	c #8D2C23",
"J+	c #933A2E",
"K+	c #933929",
"L+	c #923727",
"M+	c #632B1B",
"N+	c #4B5D27",
"O+	c #50832B",
"P+	c #6FC526",
"Q+	c #45A219",
"R+	c #589126",
"S+	c #5F453A",
"T+	c #64423A",
"U+	c #2C1B16",
"V+	c #44312A",
"W+	c #362511",
"X+	c #303A7E",
"Y+	c #4A59BA",
"Z+	c #5A65C1",
"`+	c #8C8EDD",
" @	c #9999E4",
".@	c #7C81D9",
"+@	c #4A5199",
"@@	c #2F5B08",
"#@	c #57AB14",
"$@	c #4C8E25",
"%@	c #699036",
"&@	c #704940",
"*@	c #9A544C",
"=@	c #3F271B",
"-@	c #3B780A",
";@	c #5AA11C",
">@	c #358211",
",@	c #358311",
"'@	c #346F32",
")@	c #575F8C",
"!@	c #6C72CA",
"~@	c #9092E4",
"{@	c #8181CE",
"]@	c #414389",
"^@	c #1C4A17",
"/@	c #6CC023",
"(@	c #4C832A",
"_@	c #775B41",
":@	c #9C574F",
"<@	c #A95F55",
"[@	c #C17A64",
"}@	c #714C38",
"|@	c #589E1B",
"1@	c #57A318",
"2@	c #687352",
"3@	c #D6D5D6",
"4@	c #CCCFDA",
"5@	c #B0B9CB",
"6@	c #9097A7",
"7@	c #25501D",
"8@	c #459A1E",
"9@	c #5B7931",
"0@	c #835247",
"a@	c #976251",
"b@	c #6E8B32",
"c@	c #2D792B",
"d@	c #44A118",
"e@	c #494F29",
"f@	c #78443A",
"g@	c #633228",
"h@	c #2D550A",
"i@	c #43A017",
"j@	c #368231",
"k@	c #469E1C",
"l@	c #6DBB28",
"m@	c #625C39",
"n@	c #B97A61",
"o@	c #875544",
"p@	c #4E8A17",
"q@	c #3C8B18",
"r@	c #657835",
"s@	c #AF815B",
"t@	c #BA8762",
"u@	c #7B7D3D",
"v@	c #62B01F",
"w@	c #3D9715",
"x@	c #447532",
"y@	c #8E7658",
"z@	c #ECCA95",
"A@	c #8F7757",
"B@	c #55452F",
"C@	c #58812F",
"D@	c #45A11A",
"E@	c #619D2B",
"F@	c #9B785A",
"G@	c #F5C691",
"H@	c #FCD8A0",
"I@	c #E1A87D",
"J@	c #DD9771",
"K@	c #AE785C",
"L@	c #4E632F",
"M@	c #3E9716",
"N@	c #458322",
"O@	c #9E8765",
"P@	c #F8D8A0",
"Q@	c #F5D59F",
"R@	c #9A7D60",
"S@	c #755341",
"T@	c #6A8038",
"U@	c #469D1C",
"V@	c #6CB928",
"W@	c #4C712B",
"X@	c #4D6E2B",
"Y@	c #628732",
"Z@	c #4A9422",
"  . +   + + @ # @ +   .   + . +   . +   + + @   @ +   .   + . + ",
"  + + + $ + # + + + +   + + + +   + . + + + +   + + +   . + + . ",
"+ +   @ + $   + + . %   + + % . + + . + # + . + + + +   + + + . ",
". + +   % + + +   @ . + + & * = - ; ; > , ' + @ +   @ + @ +   + ",
"+ + $   $   + $ +   . ) ! ~ { ] ^ / ( _ : < [ } + +   + + + @   ",
"+   @ + % . + + +   | 1 2 3 4 5 6 7 8 9 7 0 a b c d   . + + +   ",
"+ +   + . + @ # + + e f 2 g 4 h i j k l 6 m n o p q + + . +   . ",
". $   $ . + # + + r s t u v w x y z A B C D E F G H I + . + +   ",
"+ $ $ $ $ +   J K L M N O P Q R S T T U V W X Y Z `  ...+ @ +   ",
"% . %   @ + + + +.@.#.$.%.&.*.=.-.;.;.>.,.'.).!.~.{.].^.@ + + + ",
"  + . + @   + $ % /.(._.:.<.[.}.|.1.2.3.4.5.6.7.8.9.0.+ # + . + ",
"+ + . +   + + +   @ + a.b.c.d.e.f.g.h.i.e.j.k.l.m.n.o.+   . + $ ",
"+ # + +   + . % J p.q.r.s.t.u.v.w.x.y.z.A.B.C.D.E.F.+ + + . + + ",
"+ + # % . G.H.I.J.K.L.M.N.O.P.Q.R.S.T.U.V.W.X.+ + + . + @ + + . ",
". %   . Y.Z.`. +.+++@+#+$+%+&+*+=+-+;+>+,+'+@ + @ + + . + @ + + ",
"+ . )+!+~+{+]+^+/+  + . (+_+:+<+-+-+-+[+}+|++ $   + + . @ + .   ",
"1+2+3+4+5+6+7+8+@ +   9+0+a+b+c+-+-+-+d+e+f+g+# @ +   .   + . + ",
"h+i+j+k+l+m+n+  + + o+p+q+r+s+t+u+u+u+u+-+v+w++ + + +   + + + + ",
"J x+y+z+A+B+C++ + + D+E+F+G+H+I+J+K+K+L+L+M+N+O+J . %   + + % . ",
". + J P+Q++ + @ + # R+S+T+U+V+W+X+Y+Z+`+ @.@+@@@E.#@. + +   . + ",
"+ . +   +   + . + $@%@&@*@=@-@;@>@,@'@)@!@~@{@]@^@/@. + $ + .   ",
"+ . + + . @ . @ + (@_@:@<@[@}@|@+   1@2@3@4@5@6@7@/@+ + + + +   ",
"+   @ . + + + + . + 8@9@0@a@b@c@+ +   d@e@f@g@h@,@i@+ +   +   . ",
". +   . @ # + . + + @ J j@k@Q+  . $ l@m@n@o@p@i@+ +   + +   +   ",
"+ .   + # + + . + . + + + @ +   + q@r@s@t@u@v@+ . % +   + . +   ",
"% . + +   . + + + + . # @ + + + w@x@y@z@A@B@C@D@  . + + . % + + ",
"  @ + . + + .   @ + . + # + . + E@F@G@H@I@J@K@L@M@. + # @   $ + ",
"@   . + @ + . +   + @ +   . + $ N@O@P@Q@R@S@T@U@  @ + + # + + $ ",
"+ + . + + + + +   + + + + . + + + V@W@X@Y@Z@. % +   + $   $ + + ",
"+ # @ +   @   + + + . + @ + + . + +   % . @   . +   + $ $ + % . ",
". + # + +   @ + @ + + . + @ + + . %   . +   $ . $ + . % +   . + ",
"+ .   . +   + $   + + . @ + .   + . + . +   + $ $   + . @ + .   "};
