/* XPM */
static char * wall_xpm[] = {
"32 32 183 2",
"  	c #70C725",
". 	c #328530",
"+ 	c #44A318",
"@ 	c #58AC14",
"# 	c #94FF30",
"$ 	c #3A9311",
"% 	c #3D9815",
"& 	c #002400",
"* 	c #002900",
"= 	c #084200",
"- 	c #125108",
"; 	c #135512",
"> 	c #155B1C",
", 	c #144648",
"' 	c #0E4D11",
") 	c #175D1E",
"! 	c #175F1F",
"~ 	c #186020",
"{ 	c #083621",
"] 	c #105315",
"^ 	c #043400",
"/ 	c #125618",
"( 	c #053500",
"_ 	c #082B20",
": 	c #14591A",
"< 	c #0C4D0E",
"[ 	c #05251E",
"} 	c #0C4916",
"| 	c #165D1D",
"1 	c #0B4816",
"2 	c #0C3334",
"3 	c #0D4F11",
"4 	c #0E3F2D",
"5 	c #185F20",
"6 	c #0A2E2F",
"7 	c #0B4B0B",
"8 	c #0F373B",
"9 	c #0B4B0D",
"0 	c #084708",
"a 	c #175E1F",
"b 	c #0C4D0F",
"c 	c #0B2F31",
"d 	c #084706",
"e 	c #0A4B0C",
"f 	c #145A1B",
"g 	c #0A3B28",
"h 	c #094A0B",
"i 	c #0E5012",
"j 	c #0A4A0B",
"k 	c #0D4E10",
"l 	c #09490B",
"m 	c #0C3234",
"n 	c #084808",
"o 	c #105314",
"p 	c #094909",
"q 	c #08450F",
"r 	c #14581A",
"s 	c #09490A",
"t 	c #0F5214",
"u 	c #175E1E",
"v 	c #125718",
"w 	c #135819",
"x 	c #0E5011",
"y 	c #084809",
"z 	c #072923",
"A 	c #084807",
"B 	c #0F5113",
"C 	c #084707",
"D 	c #033400",
"E 	c #043007",
"F 	c #041B0B",
"G 	c #091E09",
"H 	c #0F220F",
"I 	c #172917",
"J 	c #162916",
"K 	c #162816",
"L 	c #243224",
"M 	c #2D3A2D",
"N 	c #213021",
"O 	c #031903",
"P 	c #011601",
"Q 	c #021909",
"R 	c #243327",
"S 	c #465F46",
"T 	c #394F39",
"U 	c #384D38",
"V 	c #516B51",
"W 	c #6F8F6F",
"X 	c #6B896B",
"Y 	c #648164",
"Z 	c #678667",
"` 	c #9EB89E",
" .	c #B7CDB7",
"..	c #AEC4AF",
"+.	c #87A088",
"@.	c #638163",
"#.	c #556F55",
"$.	c #273627",
"%.	c #000000",
"&.	c #010609",
"*.	c #3A4D3C",
"=.	c #617D61",
"-.	c #170200",
";.	c #250700",
">.	c #425944",
",.	c #729372",
"'.	c #597459",
").	c #000200",
"!.	c #486048",
"~.	c #A3BEA3",
"{.	c #879988",
"].	c #1C0000",
"^.	c #382100",
"/.	c #140000",
"(.	c #5D795D",
"_.	c #405440",
":.	c #607D61",
"<.	c #372200",
"[.	c #6F5719",
"}.	c #69623B",
"|.	c #5A775C",
"1.	c #6B8A6B",
"2.	c #577357",
"3.	c #859D85",
"4.	c #96AD97",
"5.	c #7A7A5F",
"6.	c #836C2E",
"7.	c #785F1D",
"8.	c #3B2400",
"9.	c #5D785D",
"0.	c #26382E",
"a.	c #557055",
"b.	c #586F54",
"c.	c #4C3808",
"d.	c #6A5014",
"e.	c #54491B",
"f.	c #516B52",
"g.	c #95B195",
"h.	c #94A894",
"i.	c #534E3E",
"j.	c #694F08",
"k.	c #7D651E",
"l.	c #584508",
"m.	c #556B50",
"n.	c #577257",
"o.	c #293929",
"p.	c #031318",
"q.	c #3E523D",
"r.	c #5E7A5F",
"s.	c #3B2A00",
"t.	c #7B6322",
"u.	c #715D2B",
"v.	c #435C46",
"w.	c #9EB99E",
"x.	c #8FA290",
"y.	c #452C00",
"z.	c #887540",
"A.	c #968148",
"B.	c #5B491E",
"C.	c #5A755B",
"D.	c #455A45",
"E.	c #364630",
"F.	c #5C785C",
"G.	c #394B39",
"H.	c #3A4C39",
"I.	c #384A38",
"J.	c #536D53",
"K.	c #9FB39F",
"L.	c #626E61",
"M.	c #97AC97",
"N.	c #809480",
"O.	c #334533",
"P.	c #5A755A",
"Q.	c #3D503D",
"R.	c #3B4A2B",
"S.	c #556B4D",
"T.	c #52684A",
"U.	c #758770",
"V.	c #94A590",
"W.	c #95A692",
"X.	c #516748",
"Y.	c #3E4F32",
"Z.	c #110800",
"  . +   + + @ # @ +   .   + . +   . +   + + @   @ +   .   + . + ",
"  + + + $ + # + + + +   + + + +   + . + + + +   + + +   . + + . ",
"+ +   @ + $   + + . %   + & * * * * & + # + . + + + +   + + + . ",
". + +   % + + +   @ = - ; > > > > > > ; - = + @ +   @ + @ +   + ",
"+ + $   $   + , ' ) ! ~ ~ ~ ~ ~ ~ ~ ~ ~ ~ ! ) ' , +   + + + @   ",
"+   @ + % . { ] ~ ~ ~ ~ ~ ~ ~ ~ ~ ~ ~ ~ ~ ~ ~ ~ ] {   . + + +   ",
"+ +   + . ^ / ~ ~ ~ ~ ~ ~ ~ ~ ~ ~ ~ ~ ~ ~ ~ ~ ~ ~ / ( + . +   . ",
". $   $ _ : ~ ~ ~ ~ ~ ~ ~ ~ ~ ~ ~ ~ ~ ~ ~ ~ ~ ~ ~ ~ < [ . + +   ",
"+ $ $ $ } ~ ~ ~ ~ ~ ~ ~ ~ ~ ~ ~ ~ ~ ~ ~ ~ ~ ~ ~ ~ ~ | 1 + @ +   ",
"% . % 2 3 ~ ~ ~ ~ ~ ~ ~ ~ ~ ~ ~ ~ ~ ~ ~ ~ ~ ~ ~ ~ ~ ~ 3 2 + + + ",
"  + . 4 5 ~ ~ ~ ~ ~ ~ ~ ~ ~ ~ ~ ~ ~ ~ ~ ~ ~ ~ ~ ~ ~ ~ 5 4 + . + ",
"+ + 6 7 5 ~ ~ ~ ~ ~ ~ ~ ~ ~ ~ ~ ~ ~ ~ ~ ~ ~ ~ ~ ~ ~ ~ 5 7 6 + $ ",
"+ # 8 9 5 ~ ~ ~ ~ ~ ~ ~ ~ ~ ~ ~ ~ ~ ~ ~ ~ ~ ~ ~ ~ ~ ~ 5 9 8 + + ",
"+ + 8 0 3 ~ ~ ~ ~ ~ ~ ~ ~ ~ ~ ~ ~ ~ ~ ~ ~ ~ ~ ~ ~ ~ ~ a 9 8 + . ",
". % 8 0 < ~ ~ ~ ~ ~ ~ ~ ~ ~ ~ ~ ~ ~ ~ ~ ~ ~ ~ ~ ~ ~ ~ b 0 8 + + ",
"+ . c d e : a f ~ ~ ~ ~ ~ ~ ~ ~ ~ ~ ~ ~ ~ ~ ~ ~ ~ f a < d c .   ",
"  . + g 0 h i j / ~ ~ ~ ~ ~ ~ ~ ~ ~ ~ ~ ~ ~ ~ ~ ~ k i l g + . + ",
"  + . m 0 n n b | ~ ~ ~ ~ ~ ~ ~ ~ ~ ~ ~ ~ ~ ] > o p n 0 m + + + ",
"+ + . + q n n n i r s t u ! ~ ~ ! u o v t w x p y n n q + + % . ",
". + +   z A n n n n n n A i > > B C n n n n n n n n A z +   . + ",
"+ . +   + D A n n n n n n n C C n n n n n n n n n A D + $ + .   ",
"+ . + + . @ E n n n n n n n n n n n n n n n n n n E + + + + +   ",
"+   @ . + + + F G G G H I J J K L M M N K H O P Q + + +   +   . ",
". +   . @ # + R S T U V W X Y Z `  ...+.@.#.$.%.&.+   + +   +   ",
"+ .   + # + + *.=.-.;.>.,.'.).!.~.{.].^./.(._.%.&.% +   + . +   ",
"% . + +   . + *.:.<.[.}.|.1.2.3.4.5.6.7.8.9._.%.&.. + + . % + + ",
"  @ + . + + . 0.a.b.c.d.e.f.g.h.i.j.k.l.m.n.o.%.p.. + # @   $ + ",
"@   . + @ + . + q.r.s.t.u.v.w.x.y.z.A.B.C.D.%.%.  @ + + # + + $ ",
"+ + . + + + + + E.F.G.H.I.J.w.K.L.M.N.O.P.Q.%.%.+   + $   $ + + ",
"+ # @ +   @   + + R.S.S.S.T.U.V.W.U.X.S.Y.Z.%.. +   + $ $ + % . ",
". + # + +   @ + @ + + . + @ + + . %   . +   $ . $ + . % +   . + ",
"+ .   . +   + $   + + . @ + .   + . + . +   + $ $   + . @ + .   "};
